<svg xmlns="http://www.w3.org/2000/svg" width="51.811" height="16.054">
  <g fill="none" fill-rule="evenodd">
    <path d="M31.145 5.907l-.682 2.456L32.66 7.14c-.32-.595-.864-1.044-1.515-1.232zM25.76 8.415c0 2.63 2.096 4.764 4.685 4.764 2.587 0 4.685-2.14 4.685-4.77s-2.098-4.76-4.685-4.76c-2.59 0-4.686 2.13-4.686 4.76zm4.685-3.403c1.844 0 3.347 1.526 3.347 3.4 0 1.876-1.504 3.403-3.35 3.403-1.843 0-3.345-1.527-3.345-3.4 0-1.877 1.502-3.403 3.35-3.403zM32.06 3.06c0-.027.005-.044.005-.062v-.43c0-.475-.376-.86-.84-.86h-1.472c-.465 0-.84.377-.84.85v.423c.468-.14.962-.21 1.47-.21.586 0 1.148.09 1.677.28zm-5.138.834c-.328-.334-.86-.334-1.188 0l-.15.15c-.327.333-.327.878 0 1.212l.158.158c.34-.553.77-1.037 1.265-1.44l-.084-.09z" fill="#00b7e5"/>
    <path d="M9.15 12.7c-.194-.497-.374-.985-.542-1.465L8.08 9.77H2.777L1.71 12.7H0c.45-1.213.874-2.336 1.268-3.366.396-1.032.78-2.01 1.158-2.936.38-.93.758-1.81 1.128-2.653.374-.843.76-1.678 1.17-2.513h1.503c.404.826.795 1.66 1.166 2.504.373.843.747 1.722 1.125 2.653.377.92.764 1.9 1.16 2.93.393 1.03.816 2.15 1.268 3.36H9.152l-.003-.01zM7.61 8.45c-.364-.96-.72-1.89-1.075-2.786-.352-.9-.72-1.762-1.107-2.59-.396.832-.765 1.694-1.125 2.592-.35.9-.702 1.827-1.054 2.787h4.36V8.45zm7.805 4.822c-.964-.023-1.648-.23-2.052-.62-.404-.39-.605-1.002-.605-1.828V.364l1.568-.27v10.48c0 .256.02.468.064.636.045.167.118.3.218.404.105.098.246.176.413.224.17.048.38.09.63.125l-.22 1.31zm7.216-1.256c-.13.09-.39.202-.77.342s-.83.207-1.35.207c-.52 0-1.02-.08-1.48-.248-.46-.167-.87-.426-1.21-.778-.34-.35-.61-.79-.81-1.31-.2-.52-.3-1.15-.3-1.87 0-.64.09-1.22.28-1.74.19-.53.47-.99.83-1.37.36-.39.8-.69 1.33-.9.52-.22 1.11-.33 1.77-.33.72 0 1.35.05 1.9.16.537.1.994.21 1.363.3v7.75c0 1.33-.35 2.31-1.04 2.91-.695.6-1.74.9-3.146.9-.543 0-1.06-.05-1.545-.13-.49-.09-.902-.2-1.263-.32l.282-1.36c.305.12.69.23 1.14.32.45.09.922.15 1.405.15.92 0 1.59-.18 1.993-.55.406-.37.615-.96.615-1.76v-.38zm-.64-6.576c-.26-.04-.61-.06-1.06-.06-.83 0-1.48.274-1.93.82-.45.545-.67 1.27-.67 2.17 0 .503.06.93.19 1.29s.3.657.52.886c.22.237.47.413.75.518.29.114.58.167.88.167.41 0 .79-.05 1.14-.17.35-.11.62-.24.82-.4V5.57c-.15-.044-.36-.086-.63-.125zm16.95 7.832c-.96-.023-1.65-.23-2.05-.62-.4-.39-.6-1.002-.6-1.828V.364l1.57-.27v10.48c0 .256.02.468.07.636.05.167.12.3.21.4.1.107.24.177.41.23.17.053.38.094.63.125l-.22 1.308zm3.1-11.182c-.32 0-.59-.095-.81-.284-.23-.19-.34-.443-.34-.762 0-.32.11-.575.34-.763.22-.18.49-.28.81-.28.32 0 .59.1.82.28.22.19.34.45.34.77s-.11.58-.34.76c-.22.19-.5.29-.812.29zm-.87 1.608h1.78v8.906h-1.79V3.698zm7.26-.26c.64 0 1.17.086 1.61.258.44.174.79.418 1.06.734.26.308.46.685.57 1.124.12.43.17.914.17 1.44v5.817l-.57.1c-.24.05-.53.08-.83.12-.3.04-.64.07-1 .1s-.72.05-1.07.05c-.5 0-.962-.05-1.383-.16-.42-.1-.782-.28-1.09-.51-.304-.23-.54-.54-.715-.93-.174-.38-.26-.84-.26-1.38 0-.52.1-.96.3-1.32.197-.37.467-.67.81-.89.343-.22.74-.39 1.195-.5.453-.1.93-.16 1.43-.16.16 0 .326.01.5.027.17.02.33.045.483.07l.402.08.235.055v-.47c0-.27-.026-.55-.084-.817-.06-.27-.162-.51-.31-.717-.15-.207-.35-.375-.602-.5-.266-.125-.6-.19-1.004-.19-.527 0-.984.045-1.377.12-.39.08-.69.16-.88.246l-.187-1.37c.206-.1.544-.19 1.03-.28.47-.092.99-.14 1.55-.14h.006zm.14 8.344c.38 0 .71-.012 1-.028.29-.015.53-.048.72-.095V8.88c-.11-.06-.3-.11-.56-.152-.25-.042-.57-.063-.93-.063-.23 0-.49.018-.75.053-.26.037-.51.11-.74.225-.22.114-.41.268-.55.465-.15.197-.222.457-.222.78 0 .596.188 1.01.55 1.243.36.23.86.35 1.487.35h-.006z" fill="#2b395c"/>
  </g>
</svg>
