<svg xmlns="http://www.w3.org/2000/svg" width="20" height="20" viewBox="0 0 54.9 50.5"><path d="M9.6 12.7H8.5c-2.3 0-4.1 1.9-4.1 4.1v1.1c0 2.2 1.8 4 4 4.1v21.7h-.7c-1.3 0-2.3 1-2.3 2.3h7.1c0-1.3-1-2.3-2.3-2.3h-.5V22.1c2.2-.1 4-1.9 4-4.1v-1.1c0-2.3-1.8-4.2-4.1-4.2zM46 7.6h-7.5c0-1.8-1.5-3.3-3.3-3.3h-3.6c-1.8 0-3.3 1.5-3.3 3.3H21c-2.5 0-4.6 2-4.6 4.6v26.3c0 1.7 1.3 3.1 3 3.1h.8v1.6c0 1.7 1.4 3.1 3.1 3.1 1.7 0 3-1.4 3-3.1v-1.6h14.3v1.6c0 1.7 1.4 3.1 3.1 3.1 1.7 0 3.1-1.4 3.1-3.1v-1.6h.8c1.7 0 3.1-1.4 3.1-3.1V12.2c-.2-2.5-2.2-4.6-4.7-4.6zm-27.4 4.6c0-1.3 1.1-2.4 2.4-2.4h25c1.3 0 2.4 1.1 2.4 2.4v.3c0 1.3-1.1 2.4-2.4 2.4H21c-1.3 0-2.4-1.1-2.4-2.4v-.3zM21 38c-1.5 0-2.7-1.2-2.7-2.7 0-1.5 1.2-2.7 2.7-2.7 1.5 0 2.7 1.2 2.7 2.7 0 1.5-1.2 2.7-2.7 2.7zm0-10.1c-1.3 0-2.4-1.1-2.4-2.4v-6.6c0-1.3 1.1-2.4 2.4-2.4h25c1.3 0 2.4 1.1 2.4 2.4v6.6c0 1.3-1.1 2.4-2.4 2.4H21zm24.8 10c-1.5 0-2.7-1.2-2.7-2.7 0-1.5 1.2-2.7 2.7-2.7 1.5 0 2.7 1.2 2.7 2.7 0 1.5-1.2 2.7-2.7 2.7z"/></svg>
