<svg xmlns="http://www.w3.org/2000/svg" width="20" height="20" viewBox="0 0 54.9 50.5"><path d="M9.6 12.7H8.5c-2.3 0-4.1 1.9-4.1 4.1v1.1c0 2.2 1.8 4 4 4.1V43.7H7.7c-1.3 0-2.3 1-2.3 2.3h7.1c0-1.3-1-2.3-2.3-2.3H9.7V22.1c2.2-0.1 4-1.9 4-4.1V16.9C13.7 14.6 11.9 12.7 9.6 12.7zM46 7.6h-7.5c0-1.8-1.5-3.3-3.3-3.3h-3.6c-1.8 0-3.3 1.5-3.3 3.3h-7.3c-2.5 0-4.6 2-4.6 4.6v26.3c0 1.7 1.3 3.1 3 3.1h0.8v1.6c0 1.7 1.4 3.1 3.1 3.1 1.7 0 3-1.4 3-3.1v-1.6h14.3v1.6c0 1.7 1.4 3.1 3.1 3.1 1.7 0 3.1-1.4 3.1-3.1v-1.6h0.8c1.7 0 3.1-1.4 3.1-3.1V12.2C50.5 9.7 48.5 7.6 46 7.6zM18.6 12.2c0-1.3 1.1-2.4 2.4-2.4h25c1.3 0 2.4 1.1 2.4 2.4v0.3c0 1.3-1.1 2.4-2.4 2.4H21c-1.3 0-2.4-1.1-2.4-2.4v-0.3zm2.4 25.8c-1.5 0-2.7-1.2-2.7-2.7 0-1.5 1.2-2.7 2.7-2.7 1.5 0 2.7 1.2 2.7 2.7 0 1.5-1.2 2.7-2.7 2.7zM21 27.9c-1.3 0-2.4-1.1-2.4-2.4v-6.6c0-1.3 1.1-2.4 2.4-2.4h25c1.3 0 2.4 1.1 2.4 2.4v6.6c0 1.3-1.1 2.4-2.4 2.4H21zm24.8 10c-1.5 0-2.7-1.2-2.7-2.7 0-1.5 1.2-2.7 2.7-2.7 1.5 0 2.7 1.2 2.7 2.7 0 1.5-1.2 2.7-2.7 2.7z"/></svg>