<svg xmlns="http://www.w3.org/2000/svg" width="16.107" height="16.128">
  <path d="M11.12.002C9.55-.042 7.988.636 6.943 1.945c-.97 1.215-1.332 2.813-.99 4.326.12.537.387 1.19.672 1.636l.15.225-.59.59-.56.56 1.215 1.224.57-.57.58-.58.233.14c.9.577 2.072.874 3.13.786.743-.062 1.29-.218 1.934-.542.54-.273.883-.51 1.308-.935.826-.823 1.31-1.807 1.476-2.96.05-.333.05-1.08 0-1.394-.224-1.488-1.013-2.76-2.232-3.58C13.006.31 12.06.03 11.12.003z"/>
  <path d="M4.85 9.112c-.302.012-.472.195-2.588 2.317-2.394 2.4-2.26 2.246-2.26 2.68-.002.39.044.467.793 1.215.63.628.755.725.99.785.172.043.454.008.636-.075.143-.065.426-.334 2.28-2.186 2.41-2.407 2.31-2.283 2.308-2.72 0-.202-.01-.258-.093-.42l-.084-.17-.008-.018-1.224-1.214-.187-.103c-.162-.082-.208-.093-.41-.093-.055 0-.107-.002-.15 0z" fill="#75570f"/>
  <path d="M11.743 9.376c1.338-.245 2.507-1.136 3.093-2.358.934-1.95.306-4.24-1.495-5.45-.43-.288-1.03-.53-1.592-.645-.39-.08-1.215-.07-1.622.015-.607.13-1.164.372-1.648.714-.298.212-.79.704-1 1-1.154 1.634-1.05 3.806.257 5.314.67.773 1.596 1.28 2.62 1.435.342.053 1.037.04 1.388-.024z" fill="silver"/>
  <path d="M10.557 8.794c-.462-.073-.853-.19-1.17-.35l-.18-.09V6.686H8.89c-.275 0-.652.054-.924.133-.036.01-.05.052-.057.16l-.01.147-.137-.26c-.302-.573-.41-1.024-.41-1.717 0-.535.04-.782.188-1.212.08-.228.275-.632.36-.744.037-.05.04-.04.042.11v.167l.942-.007.94-.008.01-.237.007-.237h-.633V1.95l.113-.057c.185-.093.53-.224.724-.273.1-.025.204-.052.23-.06.04-.012.043.003.022.11-.04.204-.03.767.018.967.094.396.326.69.64.81.19.07.545.085.752.028.198-.054.418-.213.53-.383.165-.253.223-.473.24-.905l.014-.38.232.12c.267.14.592.374.83.6.16.152.165.162.165.307v.15h-.631v.488h1.166l.063.13.062.128h-.322c-.223 0-.424.02-.646.064l-.325.064v.238c0 .13.005.238.012.238.006 0 .136-.026.29-.058.154-.03.29-.057.305-.057.014 0 .025.377.025.86v.862l-.31.007-.307.008-.01.236-.007.238.674.008.675.008-.05.112-.05.113h-.357c-.33.003-.37.01-.52.083-.393.193-.604.63-.61 1.264l-.004.31-.19.1c-.17.088-.755.3-.83.3-.017 0-.028-.4-.028-1.02v-1.02h-.312c-.202 0-.414.02-.597.06-.42.085-.383.054-.383.316 0 .168.01.228.037.228.02 0 .153-.025.295-.056.14-.03.266-.057.278-.057.012 0 .022.368.022.818v.82l-.252-.005c-.138-.003-.283-.01-.323-.016z" fill="#c6e0ad"/>
  <path d="M9.242 6.407c.296-.13.52-.43.61-.816.055-.23.056-.753.002-1.007-.085-.4-.32-.705-.643-.83-.227-.087-.613-.086-.844.002-.322.124-.548.427-.64.854-.052.25-.052.715 0 .965.09.416.353.744.687.854.234.075.63.065.83-.024z" fill="silver"/>
  <path d="M8.578 5.924c-.118-.1-.173-.296-.194-.687-.018-.35.02-.713.095-.87.067-.142.194-.214.348-.198.247.024.342.217.37.75.03.557-.062.965-.234 1.044-.13.06-.29.042-.386-.04z" fill="#c6e0ad"/>
  <path d="M11.744 6.43c.5-.156.76-.673.73-1.452-.026-.663-.262-1.07-.717-1.24-.19-.07-.6-.06-.802.016-.32.123-.548.415-.644.825-.066.285-.043.933.044 1.174.134.375.388.624.713.7.193.047.48.035.677-.025z" fill="silver"/>
  <path d="M11.186 5.955c-.166-.09-.243-.44-.218-1.004.02-.427.05-.557.16-.68.157-.176.452-.126.557.094.115.242.135 1.005.035 1.342-.057.19-.176.292-.34.29-.065 0-.153-.02-.194-.04zM8.344 7.674c-.243-.253-.332-.38-.28-.395.095-.032.464-.104.473-.094.006.006.008.162.003.348l-.008.337-.188-.196zM13.56 7.635c.024-.2.104-.384.19-.44.096-.062.214-.086.268-.056.04.022.03.05-.08.196-.07.093-.188.235-.262.314l-.133.143.018-.158zM14.38 4.842l.004-1.1.085.26c.17.51.23 1.06.17 1.553-.048.388-.047.385-.163.385h-.1l.004-1.098zM11.23 3.01c-.087-.034-.178-.16-.22-.298-.038-.135-.05-.95-.013-1.117.02-.1.03-.107.126-.107.206 0 .61.067.624.104.008.02.023.163.033.318.022.323-.024.775-.094.922-.08.17-.283.25-.457.18zM8.083 2.93c.015-.026.125-.152.244-.28l.217-.23v.28l.002.282H8.3c-.224 0-.242-.005-.217-.05zM9.23 14.333c-.8-.23-1.464-.43-1.473-.438-.018-.02.81-2.955.843-2.99.016-.018 2.85.776 2.966.83.042.02-.002.195-.352 1.416-.22.768-.412 1.443-.428 1.502-.017.06-.046.107-.065.105-.018 0-.69-.192-1.49-.424z" fill="#c6e0ad"/>
  <path d="M11.19 14.684c0-.036.823-2.912.836-2.922.03-.023 2.905-.825 2.916-.814.013.013-.804 2.914-.825 2.93-.015.013-2.775.8-2.863.818-.036.007-.065.002-.065-.012zM6.412 13.4c.568-.57 1.074-1.093 1.125-1.16.114-.15.273-.492.316-.683.018-.08.036-.237.04-.35L7.9 11l.123-.034c.067-.02.128-.03.134-.023.016.016-.81 2.903-.838 2.928-.013.013-.455.145-.982.295l-.96.273L6.413 13.4z" fill="#a5d383"/>
  <path d="M11.982 11.345c-.006-.01-.024-.066-.04-.125l-.03-.107.106-.017c.9-.153 1.866-.576 2.627-1.152.108-.082.17-.113.178-.09.037.11.183.64.178.644-.022.023-3.01.86-3.018.847z" fill="#c6e0ad"/>
  <path d="M1.848 10.472c-.035-.028-.793-2.6-.85-2.884-.012-.056.098-.03 1.46.36 1.426.408 1.474.424 1.494.498.018.066.006.086-.084.15-.058.04-.52.486-1.024.992-.506.506-.926.92-.935.92-.01 0-.038-.016-.062-.036z" fill="#a5d383"/>
  <path d="M2.398 7.53C1.6 7.3.945 7.11.943 7.106c-.01-.008.845-2.98.862-2.996.015-.014 2.973.815 3.004.842.005.006-.182.683-.417 1.505-.387 1.357-.432 1.494-.485 1.492-.032-.003-.712-.192-1.51-.42z" fill="#c6e0ad"/>
  <path d="M4.387 7.89c.008-.02.142-.485.298-1.03l.283-.99.037.214c.064.374.178.8.312 1.17.072.197.126.362.12.367-.004.005-.22.07-.482.143-.26.073-.498.14-.528.15-.04.012-.05.005-.04-.023zM3.29 4.11c-.8-.23-1.46-.428-1.467-.44C1.796 3.625.985.764.997.752c.017-.016 2.896.81 2.923.84.03.032.86 2.94.837 2.937-.01-.002-.67-.19-1.468-.42z" fill="#a5d383"/>
  <path d="M4.73 2.96l-.346-1.216-.054-.19 1.14-.324c.625-.178 1.157-.332 1.18-.34.024-.01-.055.093-.174.226-.636.71-1.053 1.47-1.316 2.4-.05.174-.09.343-.09.377 0 .197-.077-.016-.34-.934z" fill="#c6e0ad"/>
  <path d="M10.998.852C8.622.852 6.7 2.775 6.7 5.15c0 2.376 1.922 4.298 4.298 4.298 2.376 0 4.307-1.922 4.307-4.298v-.037c-.022-2.36-1.947-4.26-4.307-4.26zm0 .636c2.008 0 3.644 1.617 3.663 3.625v.037c0 2.02-1.64 3.663-3.662 3.663-2.02 0-3.653-1.642-3.653-3.663 0-2.02 1.632-3.662 3.653-3.662z" fill="#fff"/>
</svg>
