<svg xmlns="http://www.w3.org/2000/svg" width="12" height="12">
  <path fill="#797979" fill-rule="evenodd" d="M6.577.5L5.304.005 2.627 1.02 0 0l.992 2.767-.986 2.685.998 2.76-1 2.717.613.22 3.39-3.45.563.06.726-.69s-.717-.92-.91-1.86c.193-.146.184-.14.355-.285C4.1 1.93 6.58.5 6.58.5zm-4.17 11.354l.22.12 2.68-1.05 2.62 1.04 2.644-1.03 1.02-2.717-.33-.944s-1.13 1.26-3.44.878c-.174.29-.25.37-.25.37s-1.11-.31-1.683-.89c-.573.58-.795.71-.795.71l.08.634-2.76 2.89zm6.26-4.395c1.817 0 3.29-1.53 3.29-3.4 0-1.88-1.473-3.4-3.29-3.4s-3.29 1.52-3.29 3.4c0 1.87 1.473 3.4 3.29 3.4z"/>
</svg>
