<svg xmlns="http://www.w3.org/2000/svg" width="20" height="20" viewBox="0 0 24 24"><path d="M22.9 1.1s1.3.3-4.3 6.5l.7 3.8.2-.2c.4-.4 1-.4 1.3 0 .4.4.4 1 0 1.3l-1.2 1.2.3 1.7.1-.1c.4-.4 1-.4 1.3 0 .4.4.4 1 0 1.3l-1.1 1.1c.2 1.9.3 3.6.1 4.5 0 0-1.2 1.2-1.8.5 0 0-2.3-7.7-3.8-11.1-5.9 6-6.4 5.6-6.4 5.6s1.2 3.8-.2 5.2l-2.3-4.3h.1l-4.3-2.3c1.3-1.3 5.2-.2 5.2-.2s-.5-.4 5.6-6.3C8.9 7.7 1.2 5.5 1.2 5.5c-.7-.7.5-1.8.5-1.8.9-.2 2.6-.1 4.5.1l1.1-1.1c.4-.4 1-.4 1.3 0 .4.4.4 1 0 1.3l1.7.3 1.2-1.2c.4-.4 1-.4 1.3 0 .4.4.4 1 0 1.3l-.2.2 3.8.7c6.2-5.5 6.5-4.2 6.5-4.2z"/></svg>
