<svg xmlns="http://www.w3.org/2000/svg" width="20" height="20" viewBox="0 0 24 24"><path d="M22.9 1.1l0 0c0 0 1.3 0.3-4.3 6.5l0.7 3.8 0.2-0.2c0.4-0.4 1-0.4 1.3 0 0.4 0.4 0.4 1 0 1.3l-1.2 1.2 0.3 1.7 0.1-0.1c0.4-0.4 1-0.4 1.3 0 0.4 0.4 0.4 1 0 1.3l-1.1 1.1c0.2 1.9 0.3 3.6 0.1 4.5 0 0-1.2 1.2-1.8 0.5 0 0-2.3-7.7-3.8-11.1 -5.9 6-6.4 5.6-6.4 5.6s1.2 3.8-0.2 5.2l-2.3-4.3L5.9 18.1 1.6 15.8c1.3-1.3 5.2-0.2 5.2-0.2S6.3 15.2 12.4 9.3C8.9 7.7 1.2 5.5 1.2 5.5c-0.7-0.7 0.5-1.8 0.5-1.8 0.9-0.2 2.6-0.1 4.5 0.1l1.1-1.1c0.4-0.4 1-0.4 1.3 0 0.4 0.4 0.4 1 0 1.3L8.6 4l1.7 0.3 1.2-1.2c0.4-0.4 1-0.4 1.3 0 0.4 0.4 0.4 1 0 1.3l-0.2 0.2 3.8 0.7C22.6-0.2 22.9 1.1 22.9 1.1z"/></svg>