<svg xmlns="http://www.w3.org/2000/svg" width="20" height="20" viewBox="0 0 24 24"><path d="M12 0.6L2.5 6.9h18.9L12 0.6zM3.8 8.2c-0.7 0-1.3 0.6-1.3 1.3v8.8l-2.2 3.8C0.1 22.4 0 22.6 0 22.7c0 0.6 0.8 0.6 1.3 0.6h21.5c0.4 0 1.3 0 1.3-0.6 0-0.2-0.1-0.3-0.3-0.6l-2.2-3.8V9.5c0-0.7-0.6-1.3-1.3-1.3H3.8zM6.3 10.7c0.7 0 1.1 0.6 1.3 1.3v7.6H5.1v-2.5V12C5.1 11.3 5.6 10.7 6.3 10.7zM12 10.7c0.7 0 1.3 0.6 1.3 1.3v5.1 2.5h-2.5v-2.5V12C10.7 11.3 11.3 10.7 12 10.7zM17.7 10.7c0.7 0 1.3 0.6 1.3 1.3v7.6h-2.5v-2.5V12C16.4 11.3 17 10.7 17.7 10.7z"/></svg>