<svg xmlns="http://www.w3.org/2000/svg" width="20" height="20" viewBox="0 0 15 20">
  <path d="M13.105 20l-2.366-3.354H4.26L1.907 20H0l3.297-4.787c-1.1-.177-2.196-1.287-2.194-2.642V2.68C1.1 1.28 2.317-.002 3.973 0h7.065c1.647-.002 2.863 1.28 2.86 2.676v9.895c.003 1.36-1.094 2.47-2.194 2.647L15 20h-1.895zM6.11 2h2.78c.264 0 .472-.123.472-.27v-.46c0-.147-.22-.268-.472-.27H6.11c-.252.002-.47.123-.47.27v.46c0 .146.206.27.47.27zm6.26 3.952V4.175c-.004-.74-.5-1.387-1.436-1.388H4.066c-.936 0-1.43.648-1.436 1.388v1.777c-.002.86.644 1.384 1.436 1.388h6.868c.793-.004 1.44-.528 1.436-1.388zm-8.465 5.386c-.69-.003-1.254.54-1.252 1.21-.002.673.56 1.217 1.252 1.222.697-.006 1.26-.55 1.262-1.22-.002-.672-.565-1.215-1.262-1.212zm8.42 1.21c-.005-.67-.567-1.213-1.265-1.21-.69-.003-1.253.54-1.25 1.21-.003.673.56 1.217 1.25 1.222.698-.006 1.26-.55 1.264-1.22z"/>
</svg>
