<?xml version="1.0" encoding="UTF-8" standalone="no"?>
<svg width="272px" height="65px" viewBox="0 0 272 65" version="1.1" xmlns="http://www.w3.org/2000/svg" xmlns:xlink="http://www.w3.org/1999/xlink">
    <!-- Generator: Sketch 3.6.1 (26313) - http://www.bohemiancoding.com/sketch -->
    <title>algolia-community</title>
    <desc>Created with Sketch.</desc>
    <defs></defs>
    <g id="Page-1" stroke="none" stroke-width="1" fill="none" fill-rule="evenodd">
        <g id="algolia-community">
            <g id="Prototype">
                <g id="landing-page-2-copy-3">
                    <g id="Group-3">
                        <g id="Group-2">
                            <g id="Group-4">
                                <g id="Community" transform="translate(0.000000, 16.000000)" fill="#FFFFFF">
                                    <path d="M0.460919189,19.2875063 C0.460919189,17.1183352 0.842213076,14.9576698 1.60481229,12.8054454 C2.3674115,10.6532209 3.47740038,8.72980509 4.93481221,7.03514017 C6.39222404,5.34047525 8.18854191,3.95934405 10.3238197,2.89170515 C12.4590975,1.82406625 14.882432,1.29025481 17.5938959,1.29025481 C20.8137592,1.29025481 23.5675484,2.0189498 25.855346,3.47636163 C28.1431437,4.93377346 29.82931,6.8317697 30.9138955,9.17040729 L28.1177124,10.8989569 C27.5415263,9.71269142 26.8382509,8.71285412 26.0078651,7.89941495 C25.1774793,7.08597579 24.2877936,6.42506639 23.3387812,5.91666691 C22.3897689,5.40826744 21.406878,5.04391994 20.390079,4.8236135 C19.37328,4.60330706 18.3734427,4.4931555 17.3905371,4.4931555 C15.221366,4.4931555 13.3064234,4.93376177 11.6456517,5.81498752 C9.98488012,6.69621328 8.58680253,7.84856814 7.45137703,9.27208668 C6.31595153,10.6956052 5.46015859,12.2970395 4.88397251,14.0764377 C4.30778644,15.8558359 4.01969773,17.6606269 4.01969773,19.490865 C4.01969773,21.4905697 4.36709882,23.4055123 5.06191144,25.2357504 C5.75672406,27.0659885 6.70572218,28.6843692 7.90893427,30.0909411 C9.11214637,31.497513 10.5356435,32.6159751 12.1794685,33.4463609 C13.8232935,34.2767467 15.6111382,34.6919334 17.5430562,34.6919334 C18.5598551,34.6919334 19.6020584,34.5648354 20.6696973,34.3106357 C21.7373362,34.0564359 22.7710663,33.6497225 23.7709186,33.090483 C24.7707709,32.5312436 25.6943494,31.8364414 26.5416819,31.0060556 C27.3890144,30.1756698 28.100763,29.1673593 28.676949,27.9810938 L31.6256512,29.5062846 C31.0494652,30.8620166 30.2360382,32.0567374 29.185346,33.090483 C28.1346537,34.1242286 26.9653525,34.996968 25.6774071,35.7087272 C24.3894618,36.4204865 23.025277,36.9627712 21.5848118,37.3355974 C20.1443466,37.7084237 18.7293226,37.8948341 17.3396974,37.8948341 C14.8654866,37.8948341 12.5946697,37.3525494 10.5271785,36.2679639 C8.45968728,35.1833783 6.6803158,33.7683543 5.18901068,32.0228495 C3.69770555,30.2773446 2.53687749,28.2946164 1.70649168,26.0746053 C0.876105866,23.8545943 0.460919189,21.5922506 0.460919189,19.2875063 L0.460919189,19.2875063 Z M48.3010707,38.0981928 C46.3691527,38.0981928 44.6067276,37.7338453 43.0137426,37.0051394 C41.4207575,36.2764335 40.0396263,35.2850694 38.8703076,34.0310174 C37.7009888,32.7769653 36.7943566,31.3195754 36.150384,29.6588037 C35.5064113,27.9980321 35.1844298,26.2525534 35.1844298,24.4223153 C35.1844298,22.5581839 35.5148845,20.7957588 36.1758038,19.1349872 C36.8367231,17.4742156 37.7518285,16.0168256 38.9211472,14.7627736 C40.090466,13.5087215 41.4715972,12.5088842 43.0645823,11.7632317 C44.6575673,11.0175791 46.403046,10.6447584 48.3010707,10.6447584 C50.1990954,10.6447584 51.9530473,11.0175791 53.5629789,11.7632317 C55.1729106,12.5088842 56.562515,13.5087215 57.7318338,14.7627736 C58.9011526,16.0168256 59.8162579,17.4742156 60.4771772,19.1349872 C61.1380966,20.7957588 61.4685513,22.5581839 61.4685513,24.4223153 C61.4685513,26.2525534 61.1465698,27.9980321 60.5025971,29.6588037 C59.8586244,31.3195754 58.9519923,32.7769653 57.7826735,34.0310174 C56.6133547,35.2850694 55.2237503,36.2764335 53.6138186,37.0051394 C52.003887,37.7338453 50.2329887,38.0981928 48.3010707,38.0981928 L48.3010707,38.0981928 Z M38.6923686,24.473155 C38.6923686,25.9644601 38.9465646,27.3455913 39.454964,28.61659 C39.9633635,29.8875887 40.6496925,31.0060508 41.5139716,31.9720098 C42.3782507,32.9379688 43.3950344,33.6920834 44.5643532,34.2343761 C45.733672,34.7766689 46.979232,35.0478112 48.3010707,35.0478112 C49.6229093,35.0478112 50.8684693,34.7681957 52.0377881,34.2089563 C53.2071069,33.6497169 54.2323638,32.8871291 55.1135896,31.9211701 C55.9948154,30.9552111 56.6896175,29.8282758 57.198017,28.5403305 C57.7064165,27.2523851 57.9606124,25.8627807 57.9606124,24.3714756 C57.9606124,22.9140638 57.7064165,21.5329326 57.198017,20.2280406 C56.6896175,18.9231486 55.9948154,17.7877402 55.1135896,16.8217811 C54.2323638,15.8558221 53.2071069,15.0932344 52.0377881,14.5339949 C50.8684693,13.9747555 49.6229093,13.69514 48.3010707,13.69514 C46.979232,13.69514 45.7421452,13.9747555 44.5897731,14.5339949 C43.4374009,15.0932344 42.4206172,15.8642953 41.5393915,16.847201 C40.6581657,17.8301066 39.9633635,18.9739883 39.454964,20.2788803 C38.9465646,21.5837723 38.6923686,22.9818499 38.6923686,24.473155 L38.6923686,24.473155 Z M106.665039,37.5897959 L103.20794,37.5897959 L103.20794,22.7954451 C103.20794,19.711155 102.716494,17.440338 101.733588,15.9829262 C100.750683,14.5255144 99.2932928,13.7968194 97.3613748,13.7968194 C96.3445759,13.7968194 95.3871045,13.9832297 94.4889321,14.356056 C93.5907597,14.7288823 92.7603864,15.2542205 91.9977872,15.9320865 C91.2351879,16.6099525 90.5658053,17.4149062 89.9896193,18.3469719 C89.4134332,19.2790377 88.9728269,20.3042946 88.6677872,21.4227734 L88.6677872,37.5897959 L85.2106881,37.5897959 L85.2106881,22.7954451 C85.2106881,19.6433684 84.736189,17.355605 83.7871767,15.9320865 C82.8381643,14.508568 81.3807743,13.7968194 79.414963,13.7968194 C77.4152584,13.7968194 75.635887,14.4916216 74.0767952,15.8812468 C72.5177035,17.2708721 71.3992414,19.1010827 70.7213755,21.3719337 L70.7213755,37.5897959 L67.2642763,37.5897959 L67.2642763,11.1023156 L70.4163373,11.1023156 L70.4163373,17.1013995 C71.5009229,15.0678016 72.92442,13.4833136 74.6868716,12.3478881 C76.4493231,11.2124626 78.3981585,10.6447584 80.5334363,10.6447584 C82.770394,10.6447584 84.5582387,11.271775 85.8970239,12.5258271 C87.2358092,13.7798791 88.0577094,15.4236794 88.3627491,17.4572773 C90.8369599,12.9155753 94.2431853,10.6447584 98.5815275,10.6447584 C100.072833,10.6447584 101.335339,10.9159007 102.369085,11.4581935 C103.40283,12.0004863 104.233204,12.7715472 104.86023,13.7713995 C105.487256,14.7712518 105.944808,15.9744459 106.232901,17.3810178 C106.520994,18.7875897 106.665039,20.3551312 106.665039,22.0836894 L106.665039,37.5897959 Z M153.386717,37.5897959 L149.929618,37.5897959 L149.929618,22.7954451 C149.929618,19.711155 149.438172,17.440338 148.455267,15.9829262 C147.472361,14.5255144 146.014971,13.7968194 144.083053,13.7968194 C143.066254,13.7968194 142.108783,13.9832297 141.21061,14.356056 C140.312438,14.7288823 139.482065,15.2542205 138.719465,15.9320865 C137.956866,16.6099525 137.287484,17.4149062 136.711298,18.3469719 C136.135111,19.2790377 135.694505,20.3042946 135.389465,21.4227734 L135.389465,37.5897959 L131.932366,37.5897959 L131.932366,22.7954451 C131.932366,19.6433684 131.457867,17.355605 130.508855,15.9320865 C129.559843,14.508568 128.102453,13.7968194 126.136641,13.7968194 C124.136937,13.7968194 122.357565,14.4916216 120.798473,15.8812468 C119.239382,17.2708721 118.12092,19.1010827 117.443054,21.3719337 L117.443054,37.5897959 L113.985955,37.5897959 L113.985955,11.1023156 L117.138016,11.1023156 L117.138016,17.1013995 C118.222601,15.0678016 119.646098,13.4833136 121.40855,12.3478881 C123.171001,11.2124626 125.119837,10.6447584 127.255115,10.6447584 C129.492072,10.6447584 131.279917,11.271775 132.618702,12.5258271 C133.957487,13.7798791 134.779388,15.4236794 135.084427,17.4572773 C137.558638,12.9155753 140.964863,10.6447584 145.303206,10.6447584 C146.794511,10.6447584 148.057017,10.9159007 149.090763,11.4581935 C150.124508,12.0004863 150.954882,12.7715472 151.581908,13.7713995 C152.208934,14.7712518 152.666487,15.9744459 152.95458,17.3810178 C153.242673,18.7875897 153.386717,20.3551312 153.386717,22.0836894 L153.386717,37.5897959 Z M168.994503,38.0981928 C166.113572,38.0981928 163.969853,37.1407215 162.563282,35.2257502 C161.15671,33.3107788 160.453434,30.4553112 160.453434,26.6592618 L160.453434,11.1023156 L163.910533,11.1023156 L163.910533,26.0491855 C163.910533,32.0482993 165.961047,35.0478112 170.062136,35.0478112 C171.078935,35.0478112 172.078773,34.8783473 173.061678,34.5394143 C174.044584,34.2004813 174.951216,33.7090359 175.781602,33.0650632 C176.611988,32.4210905 177.357629,31.6585027 178.018548,30.777277 C178.679468,29.8960512 179.213279,28.8962139 179.619999,27.7777351 L179.619999,11.1023156 L183.077098,11.1023156 L183.077098,33.1159029 C183.077098,34.0649152 183.483811,34.5394143 184.297251,34.5394143 L184.297251,37.5897959 C183.890531,37.6575825 183.560076,37.6914753 183.305877,37.6914753 L182.77206,37.6914753 C181.958621,37.657582 181.297711,37.3694933 180.789312,36.8272005 C180.280912,36.2849077 180.026716,35.5562127 180.026716,34.6410937 L180.026716,31.5907121 C178.874344,33.6582033 177.306803,35.2596376 175.324045,36.3950631 C173.341287,37.5304886 171.231461,38.0981928 168.994503,38.0981928 L168.994503,38.0981928 Z M213.174196,37.5897959 L209.717097,37.5897959 L209.717097,22.7954451 C209.717097,19.6433684 209.251071,17.355605 208.319006,15.9320865 C207.38694,14.508568 205.95497,13.7968194 204.023052,13.7968194 C203.006253,13.7968194 201.989469,13.9832297 200.97267,14.356056 C199.955871,14.7288823 199.015346,15.2542205 198.151067,15.9320865 C197.286788,16.6099525 196.515727,17.4149062 195.837861,18.3469719 C195.159995,19.2790377 194.66855,20.2873482 194.36351,21.3719337 L194.36351,37.5897959 L190.906411,37.5897959 L190.906411,11.1023156 L194.058472,11.1023156 L194.058472,17.1013995 C195.143057,15.1694815 196.693652,13.6104131 198.710304,12.4241477 C200.726955,11.2378822 202.921513,10.6447584 205.294044,10.6447584 C206.751456,10.6447584 207.988543,10.9159007 209.005342,11.4581935 C210.02214,12.0004863 210.835567,12.763074 211.445647,13.7459797 C212.055726,14.7288853 212.496332,15.9320794 212.767479,17.3555979 C213.038625,18.7791165 213.174196,20.3551312 213.174196,22.0836894 L213.174196,37.5897959 Z M220.545952,37.5897959 L220.545952,11.1023156 L224.003051,11.1023156 L224.003051,37.5897959 L220.545952,37.5897959 Z M220.545952,5.56078906 L220.545952,0.476819718 L224.003051,0.476819718 L224.003051,5.56078906 L220.545952,5.56078906 Z M244.338928,36.3188036 C244.135569,36.4204835 243.839007,36.5560546 243.449234,36.7255211 C243.059461,36.8949876 242.610381,37.0644516 242.101982,37.233918 C241.593582,37.4033845 241.017405,37.5559021 240.373432,37.6914753 C239.72946,37.8270485 239.051604,37.8948341 238.339845,37.8948341 C237.594192,37.8948341 236.882443,37.7931557 236.204577,37.5897959 C235.526712,37.3864361 234.933588,37.0729278 234.425188,36.6492616 C233.916789,36.2255953 233.510075,35.6917839 233.205036,35.0478112 C232.899996,34.4038386 232.747478,33.6581972 232.747478,32.8108647 L232.747478,13.8476591 L229.08702,13.8476591 L229.08702,11.1023156 L232.747478,11.1023156 L232.747478,2.1545296 L236.204577,2.1545296 L236.204577,11.1023156 L242.305341,11.1023156 L242.305341,13.8476591 L236.204577,13.8476591 L236.204577,31.8449105 C236.272364,32.8278162 236.619765,33.548038 237.246791,34.0055975 C237.873817,34.463157 238.594039,34.6919334 239.407478,34.6919334 C240.390384,34.6919334 241.25465,34.5309426 242.000303,34.2089563 C242.745955,33.88697 243.220454,33.6581936 243.423814,33.5226204 L244.338928,36.3188036 Z M250.185493,45.7241468 C250.45664,45.7580401 250.719309,45.7834597 250.973508,45.8004064 C251.227708,45.817353 251.473431,45.8258262 251.710684,45.8258262 C252.320763,45.8258262 252.803736,45.7410943 253.159615,45.5716278 C253.515495,45.4021613 253.862896,45.0293406 254.201829,44.4531545 C254.540762,43.8769684 254.922056,43.0465951 255.345722,41.9620095 C255.769388,40.877424 256.370985,39.420034 257.150531,37.5897959 L245.609921,11.1023156 L249.168699,11.1023156 L258.98076,34.3868952 L268.081065,11.1023156 L271.385645,11.1023156 L257.658928,45.2665896 C257.286102,46.2494953 256.667558,47.1052882 255.803279,47.8339941 C254.939,48.5627 253.761226,48.9270475 252.269921,48.9270475 C251.930988,48.9270475 251.609006,48.9185743 251.303966,48.9016277 C250.998927,48.884681 250.626106,48.842315 250.185493,48.7745284 L250.185493,45.7241468 Z"></path>
                                </g>
                                <g id="Algolia_logo_bg-dark-Copy-4" transform="translate(37.051362, 0.127235)">
                                    <g id="Fill-4" transform="translate(32.000000, 2.000000)">
                                        <g id="path-1-link" fill="#00B7E5">
                                            <path d="M7.4840035,6.21525338 L6.6200305,9.3276234 L9.4025666,7.77727775 C8.9984579,7.02400245 8.3088998,6.45442316 7.4840035,6.21525338 L7.4840035,6.21525338 Z M0.6560335,9.3919213 C0.6560335,12.726074 3.3145625,15.4295671 6.5950706,15.4295671 C9.8755788,15.4295671 12.5341078,12.726074 12.5341078,9.3919213 C12.5341078,6.05776869 9.8755788,3.35427559 6.5950706,3.35427559 C3.3145625,3.35427559 0.6560335,6.05776869 0.6560335,9.3919213 L0.6560335,9.3919213 Z M6.5950706,5.07931723 C8.9340968,5.07931723 10.83724,7.01405924 10.83724,9.3919213 C10.83724,11.7697834 8.9340968,13.7045254 6.5950706,13.7045254 C4.2560445,13.7045254 2.3529012,11.7697834 2.3529012,9.3919213 C2.3529012,7.01405924 4.2560445,5.07931723 6.5950706,5.07931723 L6.5950706,5.07931723 Z M8.644928,2.60749668 C8.6465271,2.5840918 8.6515909,2.56177552 8.6515909,2.53782634 L8.6515909,1.99352684 C8.6513244,1.39262019 8.1742561,0.90519999 7.5855166,0.90492784 L5.71962,0.90492784 C5.131147,0.90519999 4.6538122,1.39234804 4.6538122,1.99352684 L4.6538122,2.5283011 C5.2478821,2.35847966 5.8728682,2.26567659 6.5194423,2.26567659 C7.2606304,2.26567659 7.9746337,2.38651108 8.644928,2.60749668 L8.644928,2.60749668 Z M2.1314803,3.67296295 C1.7151783,3.24786504 1.0398202,3.24813719 0.6235182,3.67296295 L0.4350896,3.86537282 C0.0187875,4.29019858 0.0190541,4.97982605 0.4350896,5.40492396 L0.6357781,5.60958057 C1.0630073,4.90961141 1.6069718,4.29183148 2.2391538,3.7831836 L2.1314803,3.67296295 L2.1314803,3.67296295 Z" id="path-1"></path>
                                        </g>
                                        <path d="M7.4840035,6.21525338 L6.6200305,9.3276234 L9.4025666,7.77727775 C8.9984579,7.02400245 8.3088998,6.45442316 7.4840035,6.21525338 L7.4840035,6.21525338 Z M0.6560335,9.3919213 C0.6560335,12.726074 3.3145625,15.4295671 6.5950706,15.4295671 C9.8755788,15.4295671 12.5341078,12.726074 12.5341078,9.3919213 C12.5341078,6.05776869 9.8755788,3.35427559 6.5950706,3.35427559 C3.3145625,3.35427559 0.6560335,6.05776869 0.6560335,9.3919213 L0.6560335,9.3919213 Z M6.5950706,5.07931723 C8.9340968,5.07931723 10.83724,7.01405924 10.83724,9.3919213 C10.83724,11.7697834 8.9340968,13.7045254 6.5950706,13.7045254 C4.2560445,13.7045254 2.3529012,11.7697834 2.3529012,9.3919213 C2.3529012,7.01405924 4.2560445,5.07931723 6.5950706,5.07931723 L6.5950706,5.07931723 Z M8.644928,2.60749668 C8.6465271,2.5840918 8.6515909,2.56177552 8.6515909,2.53782634 L8.6515909,1.99352684 C8.6513244,1.39262019 8.1742561,0.90519999 7.5855166,0.90492784 L5.71962,0.90492784 C5.131147,0.90519999 4.6538122,1.39234804 4.6538122,1.99352684 L4.6538122,2.5283011 C5.2478821,2.35847966 5.8728682,2.26567659 6.5194423,2.26567659 C7.2606304,2.26567659 7.9746337,2.38651108 8.644928,2.60749668 L8.644928,2.60749668 Z M2.1314803,3.67296295 C1.7151783,3.24786504 1.0398202,3.24813719 0.6235182,3.67296295 L0.4350896,3.86537282 C0.0187875,4.29019858 0.0190541,4.97982605 0.4350896,5.40492396 L0.6357781,5.60958057 C1.0630073,4.90961141 1.6069718,4.29183148 2.2391538,3.7831836 L2.1314803,3.67296295 L2.1314803,3.67296295 Z" id="path-1"></path>
                                    </g>
                                    <path d="M11.5987051,15.9771031 C11.3554608,15.3480721 11.1270387,14.7299088 10.9126449,14.1220956 C10.6982511,13.5142824 10.4764461,12.8958603 10.2480241,12.267088 L3.51605847,12.267088 L2.16537748,15.9771031 L0,15.9771031 C0.571452141,14.4401043 1.10743666,13.0185097 1.60795357,11.7118019 C2.10820579,10.4053529 2.5973413,9.16514489 3.07668351,7.99169543 C3.55523166,6.81772845 4.03060362,5.6965473 4.50227,4.62763446 C4.97393638,3.55872162 5.46704214,2.50041769 5.98158728,1.45246392 L7.88969219,1.45246392 C8.40423733,2.50041769 8.89734309,3.55872162 9.36900947,4.62763446 C9.84067585,5.6965473 10.3157831,6.81772845 10.7948606,7.99169543 C11.2734088,9.16514489 11.762809,10.4053529 12.2633259,11.7118019 C12.7635781,13.0185097 13.2995626,14.4401043 13.8712795,15.9771031 L11.5987051,15.9771031 L11.5987051,15.9771031 L11.5987051,15.9771031 Z M9.64772142,10.5906208 C9.19008328,9.37473565 8.73641539,8.19792238 8.28645308,7.0588872 C7.83596139,5.92011077 7.3677359,4.82687505 6.88204128,3.77866253 C6.38152438,4.82687505 5.90641711,5.92011077 5.45645479,7.0588872 C5.00622779,8.19792238 4.559177,9.37473565 4.11636114,10.5906208 L9.64772142,10.5906208 L9.64772142,10.5906208 L9.64772142,10.5906208 Z" id="Fill-5" fill="#FFFFFF"></path>
                                    <path d="M18.7041998,16.7033351 C17.4801285,16.6750003 16.6121554,16.4131663 16.0997535,15.9170458 C15.587088,15.42145 15.3314141,14.6493281 15.3314141,13.60068 L15.3314141,0.340016999 L17.3164445,0 L17.3164445,13.281914 C17.3164445,13.6082884 17.3451749,13.8772061 17.4018449,14.0897168 C17.459042,14.301965 17.551559,14.4722359 17.6793959,14.5997423 C17.8074964,14.7269863 17.9785606,14.8227472 18.1920614,14.8865004 C18.4058258,14.9502536 18.6688799,15.0035125 18.9817509,15.0460146 L18.7041998,16.7033351" id="Fill-6" fill="#FFFFFF"></path>
                                    <path d="M28.6920645,15.9568102 C28.5228587,16.0703126 28.194385,16.214675 27.7071665,16.3912052 C27.219948,16.5677354 26.6513957,16.6561313 26.001771,16.6561313 C25.3380241,16.6561313 24.7129826,16.5499516 24.1271697,16.3383769 C23.5410953,16.1262792 23.0290321,15.7980638 22.5912415,15.3532078 C22.153451,14.9080902 21.8074553,14.3541778 21.5532543,13.6904243 C21.2993149,13.0266708 21.1719529,12.2358156 21.1719529,11.3178587 C21.1719529,10.5128811 21.2917307,9.77485421 21.5320709,9.10403954 C21.7721496,8.4334864 22.1215451,7.85420589 22.5807806,7.3669826 C23.039493,6.87975932 23.6007227,6.49845414 24.2647312,6.22306706 C24.9284781,5.94767998 25.6769587,5.80985568 26.5101729,5.80985568 C27.4281208,5.80985568 28.2294292,5.87732944 28.9146211,6.01123085 C29.5995514,6.14565531 30.1749034,6.26909567 30.6409385,6.38181346 L30.6409385,16.2112752 C30.6409385,17.9059649 30.2034094,19.1343534 29.3278284,19.8969638 C28.4517243,20.6595741 27.1244919,21.0406178 25.3450852,21.0406178 C24.6530937,21.0406178 24.0000693,20.9846512 23.3857503,20.8716719 C22.7714313,20.7581695 22.2381847,20.6245296 21.7865334,20.4691831 L22.1466514,18.7533097 C22.5418136,18.9081333 23.0256323,19.0462191 23.5975844,19.1662596 C24.1695366,19.2860386 24.7660719,19.3464511 25.387452,19.3464511 C26.5596009,19.3464511 27.4032761,19.1134313 27.9190007,18.6471301 C28.4344637,18.181352 28.6920645,17.4396637 28.6920645,16.4228499 L28.6920645,15.9568102 L28.6920645,15.9568102 L28.6920645,15.9568102 Z M27.8766338,7.62118606 C27.5444988,7.57201913 27.0962474,7.54691262 26.5316179,7.54691262 C25.4724472,7.54691262 24.6567551,7.89343482 24.0848029,8.58517158 C23.5128508,9.27716988 23.2270055,10.1948653 23.2270055,11.3387808 C23.2270055,11.974551 23.3078162,12.5182639 23.4704839,12.9701812 C23.6328901,13.4223599 23.8517854,13.7960809 24.1271697,14.0929131 C24.4025541,14.3892223 24.7203053,14.6083812 25.0804233,14.7493438 C25.4405413,14.8908295 25.8113818,14.96118 26.1926833,14.96118 C26.7149459,14.96118 27.1951033,14.8871681 27.6328938,14.7388828 C28.0704228,14.5903359 28.4166801,14.4177286 28.6708811,14.2200148 L28.6708811,7.78019398 C28.4729077,7.72370432 28.2085073,7.67087603 27.8766338,7.62118606 L27.8766338,7.62118606 Z" id="Fill-7" fill="#FFFFFF"></path>
                                    <path d="M49.3670682,16.7033351 C48.1429101,16.674738 47.2750623,16.4131663 46.7627344,15.9170458 C46.2504064,15.42145 45.9942424,14.6490657 45.9942424,13.60068 L45.9942424,0.340016999 L47.9797768,0 L47.9797768,13.2816517 C47.9797768,13.608026 48.007976,13.8769438 48.0649013,14.0894544 C48.1218266,14.301965 48.2143303,14.4719735 48.3426758,14.5994799 C48.4704942,14.7269863 48.6410067,14.8227472 48.8547402,14.8865004 C49.0682102,14.9502536 49.3312263,15.0032501 49.6445792,15.0457522 L49.3670682,16.7033351" id="Fill-8" fill="#FFFFFF"></path>
                                    <path d="M53.2946154,3.37461047 C52.8893229,3.37461047 52.5441182,3.25508236 52.260804,3.01656213 C51.9765885,2.7775059 51.8347812,2.4559056 51.8347812,2.05042121 C51.8347812,1.64520483 51.9765885,1.32306853 52.260804,1.0845483 C52.5441182,0.845492073 52.8893229,0.726231961 53.2946154,0.726231961 C53.7002084,0.726231961 54.0451126,0.845492073 54.3293281,1.0845483 C54.6126423,1.32306853 54.7550505,1.64520483 54.7550505,2.05042121 C54.7550505,2.4559056 54.6126423,2.7775059 54.3293281,3.01656213 C54.0451126,3.25508236 53.7002084,3.37461047 53.2946154,3.37461047 L53.2946154,3.37461047 L53.2946154,3.37461047 Z M52.1754793,5.4151644 L54.438688,5.4151644 L54.438688,16.7033351 L52.1754793,16.7033351 L52.1754793,5.4151644 L52.1754793,5.4151644 Z" id="Fill-9" fill="#FFFFFF"></path>
                                    <path d="M61.3797357,5.08362372 C62.1873163,5.08362372 62.868579,5.19373528 63.4240577,5.41283767 C63.9790024,5.63222024 64.426056,5.94238181 64.7649514,6.34304219 C65.1038469,6.74426293 65.3455336,7.22085266 65.4897444,7.77309154 C65.6336882,8.32533043 65.7060606,8.9341661 65.7060606,9.59987873 L65.7060606,16.9759523 C65.5330076,17.0062119 65.291321,17.0476789 64.9815347,17.1006333 C64.6712144,17.1535877 64.3216366,17.2026196 63.9322674,17.2480091 C63.5428982,17.2933986 63.1209479,17.3348655 62.6669509,17.3726901 C62.2124197,17.4102345 61.7616273,17.4295671 61.3148408,17.4295671 C60.6800461,17.4295671 60.0962592,17.3614828 59.5626792,17.2253143 C59.0290991,17.0891458 58.5676244,16.8734056 58.1782552,16.5786541 C57.7888859,16.2836223 57.4860432,15.8941692 57.2697269,15.4097344 C57.0534107,14.9255798 56.9452526,14.3430812 56.9452526,13.6622388 C56.9452526,13.0119361 57.0713035,12.4518522 57.3239395,11.9828273 C57.5757744,11.5140827 57.9184086,11.1358369 58.3513082,10.8480899 C58.7839407,10.5609033 59.2886786,10.3488054 59.8655219,10.2126369 C60.4420982,10.0764685 61.0477837,10.0083842 61.6825784,10.0083842 C61.8842065,10.0083842 62.0935793,10.0195915 62.3098955,10.0422862 C62.5262118,10.064981 62.7318457,10.095801 62.9262633,10.1333454 C63.1209479,10.17117 63.2905292,10.205072 63.4350071,10.2353317 C63.5789509,10.2658715 63.6798984,10.2885663 63.7375828,10.3034159 L63.7375828,9.71335247 C63.7375828,9.36536632 63.7015301,9.02130273 63.6294247,8.68060131 C63.5570522,8.34018008 63.4272624,8.03786361 63.2400554,7.77309154 C63.0525813,7.50831947 62.7964736,7.29650182 62.4719992,7.1373584 C62.1475248,6.97877534 61.7255746,6.89920362 61.2066827,6.89920362 C60.5430458,6.89920362 59.9629978,6.94851567 59.4652033,7.04685958 C58.967943,7.14520349 58.5964666,7.24746995 58.3513082,7.3530986 L58.1133603,5.60560295 C58.3729398,5.48484447 58.8058394,5.36744817 59.4112578,5.25397443 C60.0169433,5.1402205 60.6731026,5.08362372 61.3797357,5.08362372 L61.3797357,5.08362372 L61.3797357,5.08362372 Z M61.5527887,15.6593766 C62.0286844,15.6593766 62.4506346,15.6478892 62.8183722,15.6251944 C63.1861099,15.6024997 63.4924244,15.5613129 63.7375828,15.5005134 L63.7375828,11.9828273 C63.5931049,11.9074584 63.3588958,11.8430165 63.0346885,11.7900621 C62.7099471,11.7371077 62.3171061,11.7102102 61.8556314,11.7102102 C61.5527887,11.7102102 61.231786,11.7331851 60.8931576,11.7785746 C60.5542622,11.8239641 60.2439418,11.9186657 59.9629978,12.0621189 C59.6815196,12.2061325 59.4470434,12.4025401 59.2598364,12.6524625 C59.0723623,12.9018246 58.9786253,13.2310385 58.9786253,13.639544 C58.9786253,14.3960356 59.2090956,14.9216572 59.6708373,15.216689 C60.132312,15.5120009 60.7596291,15.6593766 61.5527887,15.6593766 L61.5527887,15.6593766 L61.5527887,15.6593766 Z" id="Fill-10" fill="#FFFFFF"></path>
                                </g>
                            </g>
                        </g>
                    </g>
                </g>
            </g>
        </g>
    </g>
</svg>