<?xml version="1.0" encoding="UTF-8" standalone="no"?>
<svg width="267px" height="66px" viewBox="0 0 267 66" version="1.1" xmlns="http://www.w3.org/2000/svg" xmlns:xlink="http://www.w3.org/1999/xlink">
    <!-- Generator: sketchtool 3.6.1 (26313) - http://www.bohemiancoding.com/sketch -->
    <title>F4A85213-743D-40F2-863D-47972AB5D882</title>
    <desc>Created with sketchtool.</desc>
    <defs>
        <path d="M39.4840035,8.21525338 L38.6200305,11.3276234 L41.4025666,9.77727775 C40.9984579,9.02400245 40.3088998,8.45442316 39.4840035,8.21525338 Z M32.6560335,11.3919213 C32.6560335,14.726074 35.3145625,17.4295671 38.5950706,17.4295671 C41.8755788,17.4295671 44.5341078,14.726074 44.5341078,11.3919213 C44.5341078,8.05776869 41.8755788,5.35427559 38.5950706,5.35427559 C35.3145625,5.35427559 32.6560335,8.05776869 32.6560335,11.3919213 Z M38.5950706,7.07931723 C40.9340968,7.07931723 42.83724,9.01405924 42.83724,11.3919213 C42.83724,13.7697834 40.9340968,15.7045254 38.5950706,15.7045254 C36.2560445,15.7045254 34.3529012,13.7697834 34.3529012,11.3919213 C34.3529012,9.01405924 36.2560445,7.07931723 38.5950706,7.07931723 Z M40.644928,4.60749668 C40.6465271,4.5840918 40.6515909,4.56177552 40.6515909,4.53782634 L40.6515909,3.99352684 C40.6513244,3.39262019 40.1742561,2.90519999 39.5855166,2.90492784 L37.71962,2.90492784 C37.131147,2.90519999 36.6538122,3.39234804 36.6538122,3.99352684 L36.6538122,4.5283011 C37.2478821,4.35847966 37.8728682,4.26567659 38.5194423,4.26567659 C39.2606304,4.26567659 39.9746337,4.38651108 40.644928,4.60749668 Z M34.1314803,5.67296295 C33.7151783,5.24786504 33.0398202,5.24813719 32.6235182,5.67296295 L32.4350896,5.86537282 C32.0187875,6.29019858 32.0190541,6.97982605 32.4350896,7.40492396 L32.6357781,7.60958057 C33.0630073,6.90961141 33.6069718,6.29183148 34.2391538,5.7831836 L34.1314803,5.67296295 Z" id="path-1"></path>
    </defs>
    <g id="Prototype" stroke="none" stroke-width="1" fill="none" fill-rule="evenodd">
        <g id="landing-page-2-copy-3" transform="translate(-586.000000, -3213.000000)">
            <g id="Group-3" transform="translate(0.000000, 2716.000000)">
                <g id="Group-2" transform="translate(-355.000000, -316.000000)">
                    <g id="Group-4" transform="translate(939.000000, 813.000000)">
                        <text id="Community" font-family="Raleway-ExtraLight, Raleway" font-size="50.8396934" font-weight="300" fill="#FFFFFF">
                            <tspan x="0.325652066" y="53.5897959">Community</tspan>
                        </text>
                        <g id="Algolia_logo_bg-dark-Copy-4" transform="translate(39.051362, 0.127235)">
                            <g id="Fill-4">
                                <use fill="#00B7E5" fill-rule="evenodd" xlink:href="#path-1"></use>
                                <use fill="none" xlink:href="#path-1"></use>
                            </g>
                            <path d="M11.5987051,15.9771031 C11.3554608,15.3480721 11.1270387,14.7299088 10.9126449,14.1220956 C10.6982511,13.5142824 10.4764461,12.8958603 10.2480241,12.267088 L3.51605847,12.267088 L2.16537748,15.9771031 L0,15.9771031 C0.571452141,14.4401043 1.10743666,13.0185097 1.60795357,11.7118019 C2.10820579,10.4053529 2.5973413,9.16514489 3.07668351,7.99169543 C3.55523166,6.81772845 4.03060362,5.6965473 4.50227,4.62763446 C4.97393638,3.55872162 5.46704214,2.50041769 5.98158728,1.45246392 L7.88969219,1.45246392 C8.40423733,2.50041769 8.89734309,3.55872162 9.36900947,4.62763446 C9.84067585,5.6965473 10.3157831,6.81772845 10.7948606,7.99169543 C11.2734088,9.16514489 11.762809,10.4053529 12.2633259,11.7118019 C12.7635781,13.0185097 13.2995626,14.4401043 13.8712795,15.9771031 L11.5987051,15.9771031 L11.5987051,15.9771031 Z M9.64772142,10.5906208 C9.19008328,9.37473565 8.73641539,8.19792238 8.28645308,7.0588872 C7.83596139,5.92011077 7.3677359,4.82687505 6.88204128,3.77866253 C6.38152438,4.82687505 5.90641711,5.92011077 5.45645479,7.0588872 C5.00622779,8.19792238 4.559177,9.37473565 4.11636114,10.5906208 L9.64772142,10.5906208 L9.64772142,10.5906208 Z" id="Fill-5" fill="#FFFFFF"></path>
                            <path d="M18.7041998,16.7033351 C17.4801285,16.6750003 16.6121554,16.4131663 16.0997535,15.9170458 C15.587088,15.42145 15.3314141,14.6493281 15.3314141,13.60068 L15.3314141,0.340016999 L17.3164445,0 L17.3164445,13.281914 C17.3164445,13.6082884 17.3451749,13.8772061 17.4018449,14.0897168 C17.459042,14.301965 17.551559,14.4722359 17.6793959,14.5997423 C17.8074964,14.7269863 17.9785606,14.8227472 18.1920614,14.8865004 C18.4058258,14.9502536 18.6688799,15.0035125 18.9817509,15.0460146 L18.7041998,16.7033351" id="Fill-6" fill="#FFFFFF"></path>
                            <path d="M28.6920645,15.9568102 C28.5228587,16.0703126 28.194385,16.214675 27.7071665,16.3912052 C27.219948,16.5677354 26.6513957,16.6561313 26.001771,16.6561313 C25.3380241,16.6561313 24.7129826,16.5499516 24.1271697,16.3383769 C23.5410953,16.1262792 23.0290321,15.7980638 22.5912415,15.3532078 C22.153451,14.9080902 21.8074553,14.3541778 21.5532543,13.6904243 C21.2993149,13.0266708 21.1719529,12.2358156 21.1719529,11.3178587 C21.1719529,10.5128811 21.2917307,9.77485421 21.5320709,9.10403954 C21.7721496,8.4334864 22.1215451,7.85420589 22.5807806,7.3669826 C23.039493,6.87975932 23.6007227,6.49845414 24.2647312,6.22306706 C24.9284781,5.94767998 25.6769587,5.80985568 26.5101729,5.80985568 C27.4281208,5.80985568 28.2294292,5.87732944 28.9146211,6.01123085 C29.5995514,6.14565531 30.1749034,6.26909567 30.6409385,6.38181346 L30.6409385,16.2112752 C30.6409385,17.9059649 30.2034094,19.1343534 29.3278284,19.8969638 C28.4517243,20.6595741 27.1244919,21.0406178 25.3450852,21.0406178 C24.6530937,21.0406178 24.0000693,20.9846512 23.3857503,20.8716719 C22.7714313,20.7581695 22.2381847,20.6245296 21.7865334,20.4691831 L22.1466514,18.7533097 C22.5418136,18.9081333 23.0256323,19.0462191 23.5975844,19.1662596 C24.1695366,19.2860386 24.7660719,19.3464511 25.387452,19.3464511 C26.5596009,19.3464511 27.4032761,19.1134313 27.9190007,18.6471301 C28.4344637,18.181352 28.6920645,17.4396637 28.6920645,16.4228499 L28.6920645,15.9568102 L28.6920645,15.9568102 Z M27.8766338,7.62118606 C27.5444988,7.57201913 27.0962474,7.54691262 26.5316179,7.54691262 C25.4724472,7.54691262 24.6567551,7.89343482 24.0848029,8.58517158 C23.5128508,9.27716988 23.2270055,10.1948653 23.2270055,11.3387808 C23.2270055,11.974551 23.3078162,12.5182639 23.4704839,12.9701812 C23.6328901,13.4223599 23.8517854,13.7960809 24.1271697,14.0929131 C24.4025541,14.3892223 24.7203053,14.6083812 25.0804233,14.7493438 C25.4405413,14.8908295 25.8113818,14.96118 26.1926833,14.96118 C26.7149459,14.96118 27.1951033,14.8871681 27.6328938,14.7388828 C28.0704228,14.5903359 28.4166801,14.4177286 28.6708811,14.2200148 L28.6708811,7.78019398 C28.4729077,7.72370432 28.2085073,7.67087603 27.8766338,7.62118606 Z" id="Fill-7" fill="#FFFFFF"></path>
                            <path d="M49.3670682,16.7033351 C48.1429101,16.674738 47.2750623,16.4131663 46.7627344,15.9170458 C46.2504064,15.42145 45.9942424,14.6490657 45.9942424,13.60068 L45.9942424,0.340016999 L47.9797768,0 L47.9797768,13.2816517 C47.9797768,13.608026 48.007976,13.8769438 48.0649013,14.0894544 C48.1218266,14.301965 48.2143303,14.4719735 48.3426758,14.5994799 C48.4704942,14.7269863 48.6410067,14.8227472 48.8547402,14.8865004 C49.0682102,14.9502536 49.3312263,15.0032501 49.6445792,15.0457522 L49.3670682,16.7033351" id="Fill-8" fill="#FFFFFF"></path>
                            <path d="M53.2946154,3.37461047 C52.8893229,3.37461047 52.5441182,3.25508236 52.260804,3.01656213 C51.9765885,2.7775059 51.8347812,2.4559056 51.8347812,2.05042121 C51.8347812,1.64520483 51.9765885,1.32306853 52.260804,1.0845483 C52.5441182,0.845492073 52.8893229,0.726231961 53.2946154,0.726231961 C53.7002084,0.726231961 54.0451126,0.845492073 54.3293281,1.0845483 C54.6126423,1.32306853 54.7550505,1.64520483 54.7550505,2.05042121 C54.7550505,2.4559056 54.6126423,2.7775059 54.3293281,3.01656213 C54.0451126,3.25508236 53.7002084,3.37461047 53.2946154,3.37461047 L53.2946154,3.37461047 Z M52.1754793,5.4151644 L54.438688,5.4151644 L54.438688,16.7033351 L52.1754793,16.7033351 L52.1754793,5.4151644 Z" id="Fill-9" fill="#FFFFFF"></path>
                            <path d="M61.3797357,5.08362372 C62.1873163,5.08362372 62.868579,5.19373528 63.4240577,5.41283767 C63.9790024,5.63222024 64.426056,5.94238181 64.7649514,6.34304219 C65.1038469,6.74426293 65.3455336,7.22085266 65.4897444,7.77309154 C65.6336882,8.32533043 65.7060606,8.9341661 65.7060606,9.59987873 L65.7060606,16.9759523 C65.5330076,17.0062119 65.291321,17.0476789 64.9815347,17.1006333 C64.6712144,17.1535877 64.3216366,17.2026196 63.9322674,17.2480091 C63.5428982,17.2933986 63.1209479,17.3348655 62.6669509,17.3726901 C62.2124197,17.4102345 61.7616273,17.4295671 61.3148408,17.4295671 C60.6800461,17.4295671 60.0962592,17.3614828 59.5626792,17.2253143 C59.0290991,17.0891458 58.5676244,16.8734056 58.1782552,16.5786541 C57.7888859,16.2836223 57.4860432,15.8941692 57.2697269,15.4097344 C57.0534107,14.9255798 56.9452526,14.3430812 56.9452526,13.6622388 C56.9452526,13.0119361 57.0713035,12.4518522 57.3239395,11.9828273 C57.5757744,11.5140827 57.9184086,11.1358369 58.3513082,10.8480899 C58.7839407,10.5609033 59.2886786,10.3488054 59.8655219,10.2126369 C60.4420982,10.0764685 61.0477837,10.0083842 61.6825784,10.0083842 C61.8842065,10.0083842 62.0935793,10.0195915 62.3098955,10.0422862 C62.5262118,10.064981 62.7318457,10.095801 62.9262633,10.1333454 C63.1209479,10.17117 63.2905292,10.205072 63.4350071,10.2353317 C63.5789509,10.2658715 63.6798984,10.2885663 63.7375828,10.3034159 L63.7375828,9.71335247 C63.7375828,9.36536632 63.7015301,9.02130273 63.6294247,8.68060131 C63.5570522,8.34018008 63.4272624,8.03786361 63.2400554,7.77309154 C63.0525813,7.50831947 62.7964736,7.29650182 62.4719992,7.1373584 C62.1475248,6.97877534 61.7255746,6.89920362 61.2066827,6.89920362 C60.5430458,6.89920362 59.9629978,6.94851567 59.4652033,7.04685958 C58.967943,7.14520349 58.5964666,7.24746995 58.3513082,7.3530986 L58.1133603,5.60560295 C58.3729398,5.48484447 58.8058394,5.36744817 59.4112578,5.25397443 C60.0169433,5.1402205 60.6731026,5.08362372 61.3797357,5.08362372 L61.3797357,5.08362372 Z M61.5527887,15.6593766 C62.0286844,15.6593766 62.4506346,15.6478892 62.8183722,15.6251944 C63.1861099,15.6024997 63.4924244,15.5613129 63.7375828,15.5005134 L63.7375828,11.9828273 C63.5931049,11.9074584 63.3588958,11.8430165 63.0346885,11.7900621 C62.7099471,11.7371077 62.3171061,11.7102102 61.8556314,11.7102102 C61.5527887,11.7102102 61.231786,11.7331851 60.8931576,11.7785746 C60.5542622,11.8239641 60.2439418,11.9186657 59.9629978,12.0621189 C59.6815196,12.2061325 59.4470434,12.4025401 59.2598364,12.6524625 C59.0723623,12.9018246 58.9786253,13.2310385 58.9786253,13.639544 C58.9786253,14.3960356 59.2090956,14.9216572 59.6708373,15.216689 C60.132312,15.5120009 60.7596291,15.6593766 61.5527887,15.6593766 L61.5527887,15.6593766 Z" id="Fill-10" fill="#FFFFFF"></path>
                        </g>
                    </g>
                </g>
            </g>
        </g>
    </g>
</svg>