<?xml version="1.0" encoding="UTF-8" standalone="no"?>
<svg width="48px" height="51px" viewBox="0 0 48 51" version="1.1" xmlns="http://www.w3.org/2000/svg" xmlns:xlink="http://www.w3.org/1999/xlink">
    <!-- Generator: Sketch 3.7.2 (28276) - http://www.bohemiancoding.com/sketch -->
    <title>city-icon</title>
    <desc>Created with Sketch.</desc>
    <defs></defs>
    <g id="Page-1" stroke="none" stroke-width="1" fill="none" fill-rule="evenodd">
        <g id="Places-1-Copy-9" transform="translate(-617.000000, -308.000000)" fill="#FFFFFF">
            <g id="Group-20" transform="translate(253.000000, 274.000000)">
                <path d="M396,58.1578947 L396,42.0526316 L388,34 L380,42.0526316 L380,47.4210526 L364,47.4210526 L364,85 L412,85 L412,58.1578947 L396,58.1578947 L396,58.1578947 Z M374.666667,79.6315789 L369.333333,79.6315789 L369.333333,74.2631579 L374.666667,74.2631579 L374.666667,79.6315789 L374.666667,79.6315789 Z M374.666667,68.8947368 L369.333333,68.8947368 L369.333333,63.5263158 L374.666667,63.5263158 L374.666667,68.8947368 L374.666667,68.8947368 Z M374.666667,58.1578947 L369.333333,58.1578947 L369.333333,52.7894737 L374.666667,52.7894737 L374.666667,58.1578947 L374.666667,58.1578947 Z M390.666667,79.6315789 L385.333333,79.6315789 L385.333333,74.2631579 L390.666667,74.2631579 L390.666667,79.6315789 L390.666667,79.6315789 Z M390.666667,68.8947368 L385.333333,68.8947368 L385.333333,63.5263158 L390.666667,63.5263158 L390.666667,68.8947368 L390.666667,68.8947368 Z M390.666667,58.1578947 L385.333333,58.1578947 L385.333333,52.7894737 L390.666667,52.7894737 L390.666667,58.1578947 L390.666667,58.1578947 Z M390.666667,47.4210526 L385.333333,47.4210526 L385.333333,42.0526316 L390.666667,42.0526316 L390.666667,47.4210526 L390.666667,47.4210526 Z M406.666667,79.6315789 L401.333333,79.6315789 L401.333333,74.2631579 L406.666667,74.2631579 L406.666667,79.6315789 L406.666667,79.6315789 Z M406.666667,68.8947368 L401.333333,68.8947368 L401.333333,63.5263158 L406.666667,63.5263158 L406.666667,68.8947368 L406.666667,68.8947368 Z" id="city-icon"></path>
            </g>
        </g>
    </g>
</svg>