<?xml version="1.0" encoding="UTF-8" standalone="no"?>
<svg width="39px" height="48px" viewBox="0 0 39 48" version="1.1" xmlns="http://www.w3.org/2000/svg" xmlns:xlink="http://www.w3.org/1999/xlink">
    <!-- Generator: Sketch 3.7.2 (28276) - http://www.bohemiancoding.com/sketch -->
    <title>form-icon</title>
    <desc>Created with Sketch.</desc>
    <defs></defs>
    <g id="Page-1" stroke="none" stroke-width="1" fill="none" fill-rule="evenodd">
        <g id="Places-1-Copy-9" transform="translate(-458.000000, -310.000000)" fill="#FFFFFF">
            <g id="Group-20" transform="translate(253.000000, 274.000000)">
                <path d="M241.048649,83.8933333 L207.424324,83.8933333 C206.106757,83.8933333 205,82.7733333 205,81.44 L205,38.4533333 C205,37.12 206.106757,36 207.424324,36 L241.048649,36 C242.366216,36 243.472973,37.12 243.472973,38.4533333 L243.472973,81.44 C243.472973,82.8266667 242.366216,83.8933333 241.048649,83.8933333 L241.048649,83.8933333 Z M209.47973,79.7333333 L238.993243,79.7333333 C239.204054,79.7333333 239.362162,79.5733333 239.362162,79.36 L239.362162,40.5333333 C239.362162,40.32 239.204054,40.16 238.993243,40.16 L209.47973,40.16 C209.268919,40.16 209.110811,40.32 209.110811,40.5333333 L209.110811,79.36 C209.058108,79.5733333 209.268919,79.7333333 209.47973,79.7333333 Z M233.406757,75.2 L215.013514,75.2 C214.802703,75.2 214.644595,75.04 214.644595,74.8266667 L214.644595,71.4666667 C214.644595,71.2533333 214.802703,71.0933333 215.013514,71.0933333 L233.406757,71.0933333 C233.617568,71.0933333 233.775676,71.2533333 233.775676,71.4666667 L233.775676,74.8266667 C233.828378,75.04 233.617568,75.2 233.406757,75.2 Z M233.406757,66.4 L215.013514,66.4 C214.802703,66.4 214.644595,66.24 214.644595,66.0266667 L214.644595,62.6666667 C214.644595,62.4533333 214.802703,62.2933333 215.013514,62.2933333 L233.406757,62.2933333 C233.617568,62.2933333 233.775676,62.4533333 233.775676,62.6666667 L233.775676,66.0266667 C233.828378,66.24 233.617568,66.4 233.406757,66.4 Z M233.406757,57.6 L215.013514,57.6 C214.802703,57.6 214.644595,57.44 214.644595,57.2266667 L214.644595,53.8666667 C214.644595,53.6533333 214.802703,53.4933333 215.013514,53.4933333 L233.406757,53.4933333 C233.617568,53.4933333 233.775676,53.6533333 233.775676,53.8666667 L233.775676,57.2266667 C233.828378,57.44 233.617568,57.6 233.406757,57.6 Z M233.406757,48.8533333 L215.013514,48.8533333 C214.802703,48.8533333 214.644595,48.6933333 214.644595,48.48 L214.644595,45.12 C214.644595,44.9066667 214.802703,44.7466667 215.013514,44.7466667 L233.406757,44.7466667 C233.617568,44.7466667 233.775676,44.9066667 233.775676,45.12 L233.775676,48.48 C233.828378,48.6933333 233.617568,48.8533333 233.406757,48.8533333 Z" id="form-icon"></path>
            </g>
        </g>
    </g>
</svg>