<?xml version="1.0" encoding="UTF-8" standalone="no"?>
<svg width="40px" height="39px" viewBox="0 0 40 39" version="1.1" xmlns="http://www.w3.org/2000/svg" xmlns:xlink="http://www.w3.org/1999/xlink" xmlns:sketch="http://www.bohemiancoding.com/sketch/ns">
    <!-- Generator: sketchtool 3.5.2 (25235) - http://www.bohemiancoding.com/sketch -->
    <title>icons/icon-github</title>
    <desc>Created with sketchtool.</desc>
    <defs></defs>
    <g id="Page-1" stroke="none" stroke-width="1" fill="none" fill-rule="evenodd" sketch:type="MSPage">
        <g id="icons" sketch:type="MSArtboardGroup" transform="translate(-255.000000, -304.000000)" fill="#ffffff">
            <path d="M274.998158,304 C263.955462,304 255,312.954234 255,324.000614 C255,332.836981 260.730072,340.332607 268.677522,342.977255 C269.678167,343.161423 270.042819,342.543847 270.042819,342.013444 C270.042819,341.538292 270.02563,340.28104 270.015808,338.61248 C264.452715,339.820621 263.278953,335.930998 263.278953,335.930998 C262.369164,333.620308 261.05789,333.005187 261.05789,333.005187 C259.241996,331.765125 261.195402,331.78968 261.195402,331.78968 C263.20283,331.930876 264.258725,333.851131 264.258725,333.851131 C266.042696,336.907087 268.940268,336.02431 270.079653,335.512324 C270.261365,334.220694 270.778262,333.339145 271.349182,332.839436 C266.908284,332.334817 262.239019,330.618374 262.239019,322.954541 C262.239019,320.77154 263.018662,318.985113 264.298014,317.587894 C264.091746,317.082047 263.405415,315.047607 264.49446,312.294914 C264.49446,312.294914 266.172841,311.757144 269.993708,314.345314 C271.5886,313.900856 273.300132,313.679855 275.000614,313.671261 C276.699868,313.679855 278.410172,313.900856 280.00752,314.345314 C283.825931,311.757144 285.501857,312.294914 285.501857,312.294914 C286.593358,315.047607 285.907026,317.082047 285.701986,317.587894 C286.983793,318.985113 287.757298,320.77154 287.757298,322.954541 C287.757298,330.638018 283.080665,332.328678 278.626262,332.823475 C279.343289,333.441051 279.982964,334.661469 279.982964,336.526474 C279.982964,339.200589 279.958409,341.357807 279.958409,342.013444 C279.958409,342.548758 280.319378,343.171245 281.333528,342.976028 C289.27484,340.32524 295,332.834525 295,324.000614 C295,312.954234 286.044538,304 274.998158,304" id="icons/icon-github" sketch:type="MSShapeGroup"></path>
        </g>
    </g>
</svg>