<svg width="12" height="12" viewBox="0 0 12 12" xmlns="http://www.w3.org/2000/svg"><title>Icons/Search</title><path d="M12 11.077c0-.245-.1-.483-.267-.65L9.26 7.955c.584-.843.894-1.853.894-2.877C10.154 2.272 7.882 0 5.077 0S0 2.272 0 5.077s2.272 5.077 5.077 5.077c1.024 0 2.034-.31 2.877-.894l2.474 2.466c.166.173.404.274.65.274.504 0 .922-.418.922-.923zm-3.692-6c0 1.78-1.45 3.23-3.23 3.23-1.782 0-3.232-1.45-3.232-3.23s1.45-3.23 3.23-3.23c1.782 0 3.232 1.45 3.232 3.23z" fill="#FFF" fill-rule="evenodd"/></svg>