<?xml version="1.0" encoding="UTF-8"?>
<svg width="46px" height="46px" viewBox="0 0 46 46" version="1.1" xmlns="http://www.w3.org/2000/svg" xmlns:xlink="http://www.w3.org/1999/xlink">
    <!-- Generator: Sketch 41.2 (35397) - http://www.bohemiancoding.com/sketch -->
    <title>logo/algolia-community/mark-sm</title>
    <desc>Created with Sketch.</desc>
    <defs></defs>
    <g id="Symbols" stroke="none" stroke-width="1" fill="none" fill-rule="evenodd">
        <g id="logo/algolia-community/mark-sm">
            <g id="Group-4" transform="translate(22.627417, 22.627417) rotate(-315.000000) translate(-22.627417, -22.627417) translate(6.627417, 6.627417)">
                <rect id="Rectangle-194" fill="#182359" x="-7.10542736e-14" y="-3.87245791e-13" width="32" height="32"></rect>
                <polygon id="Path" fill="#46AEDA" points="2 7 2 2 8 2 8 4 4 4 4 7"></polygon>
                <polygon id="Path" fill="#FE336F" points="30 25 30 30 13 30 13 28 28 28 28 25"></polygon>
                <polygon id="Path" fill="#F5A623" points="30 23 30 2 10 2 10 4 28 4 28 23"></polygon>
                <polygon id="Path" fill="#50E3C2" points="2 21 2 30 11 30 11 28 4 28 4 21"></polygon>
                <polygon id="Path" fill="#BD0FE1" points="2 19 2 9 4 9 4 19"></polygon>
            </g>
            <path d="M22.6687631,16.5911436 C18.8972746,16.5911436 15.8375262,19.6520696 15.8375262,23.4323499 C15.8375262,27.2126302 18.8972746,30.2662159 22.6687631,30.2662159 C26.4402516,30.2662159 29.5,27.2052899 29.5,23.4250096 C29.5,19.6447292 26.4475891,16.5911436 22.6687631,16.5911436 Z M22.6687631,28.2476196 C20.0125786,28.2476196 17.8553459,26.0895567 17.8553459,23.4323499 C17.8553459,20.7751432 20.0125786,18.6170802 22.6687631,18.6170802 C25.3249476,18.6170802 27.4821803,20.7751432 27.4821803,23.4323499 C27.4821803,26.0895567 25.3322851,28.2476196 22.6687631,28.2476196 Z M22.6687631,19.6006871 L22.6687631,23.1901184 C22.6687631,23.2928833 22.778826,23.3662868 22.8742138,23.3149043 L26.0587002,21.6633255 C26.1320755,21.6266238 26.1540881,21.5385396 26.1174004,21.4651361 C25.4570231,20.3053608 24.2316562,19.5126029 22.8155136,19.4612205 C22.7421384,19.4612205 22.6687631,19.5199433 22.6687631,19.6006871 Z M18.2075472,16.9655014 L17.7893082,16.5471015 C17.3784067,16.1360419 16.7180294,16.1360419 16.3071279,16.5471015 L15.8081761,17.0462453 C15.3972746,17.4573049 15.3972746,18.1179364 15.8081761,18.528996 L16.2190776,18.9400556 C16.2851153,19.0061188 16.3805031,18.9914381 16.4392034,18.9253749 C16.6813417,18.5950592 16.9454927,18.2794241 17.2389937,17.9858101 C17.5398323,17.6848558 17.8480084,17.4206032 18.1855346,17.1783716 C18.2589099,17.1343295 18.2662474,17.0315646 18.2075472,16.9655014 Z M24.9067086,15.8791296 L24.9067086,15.0496701 C24.9067086,14.4697824 24.4371069,14 23.8574423,14 L21.4140461,14 C20.8343816,14 20.3647799,14.4697824 20.3647799,15.0496701 L20.3647799,15.9011507 C20.3647799,15.9965752 20.4528302,16.0626384 20.548218,16.0406173 C21.230608,15.8424279 21.9496855,15.739663 22.6761006,15.739663 C23.3731656,15.739663 24.0628931,15.8350875 24.730608,16.0185963 C24.8186583,16.0406173 24.9067086,15.9745542 24.9067086,15.8791296 Z" id="Shape" fill="#FFFFFF"></path>
        </g>
    </g>
</svg>