<?xml version="1.0" encoding="UTF-8" standalone="no"?>
<svg width="22px" height="22px" viewBox="0 0 22 22" version="1.1" xmlns="http://www.w3.org/2000/svg" xmlns:xlink="http://www.w3.org/1999/xlink">
    <!-- Generator: sketchtool 3.6.1 (26313) - http://www.bohemiancoding.com/sketch -->
    <title>search-icon copy</title>
    <desc>Created with sketchtool.</desc>
    <defs></defs>
    <g id="Prototype" stroke="none" stroke-width="1" fill="none" fill-rule="evenodd" opacity="0.5">
        <g id="landing-page-2" transform="translate(-1147.000000, -457.000000)" fill="#595959">
            <g id="Group-14" transform="translate(253.000000, 440.000000)">
                <path d="M909.72327,30.836478 L908.72956,30.836478 L908.377358,30.4968553 C909.610063,29.0628931 910.352201,27.2012579 910.352201,25.1761006 C910.352201,20.6603774 906.691824,17 902.176101,17 C897.660377,17 894,20.6603774 894,25.1761006 C894,29.6918239 897.660377,33.3522013 902.176101,33.3522013 C904.201258,33.3522013 906.062893,32.6100629 907.496855,31.3773585 L907.836478,31.7295597 L907.836478,32.7232704 L914.125786,39 L916,37.1257862 L909.72327,30.836478 L909.72327,30.836478 Z M902.176101,30.836478 C899.044025,30.836478 896.515723,28.3081761 896.515723,25.1761006 C896.515723,22.0440252 899.044025,19.5157233 902.176101,19.5157233 C905.308176,19.5157233 907.836478,22.0440252 907.836478,25.1761006 C907.836478,28.3081761 905.308176,30.836478 902.176101,30.836478 L902.176101,30.836478 Z" id="search-icon-copy"></path>
            </g>
        </g>
    </g>
</svg>