<?xml version="1.0" encoding="UTF-8" standalone="no"?>
<svg width="48px" height="48px" viewBox="0 0 48 48" version="1.1" xmlns="http://www.w3.org/2000/svg" xmlns:xlink="http://www.w3.org/1999/xlink">
    <!-- Generator: Sketch 3.7.2 (28276) - http://www.bohemiancoding.com/sketch -->
    <title>search-icon</title>
    <desc>Created with Sketch.</desc>
    <defs></defs>
    <g id="Page-1" stroke="none" stroke-width="1" fill="none" fill-rule="evenodd">
        <g id="Places-1-Copy-9" transform="translate(-289.000000, -310.000000)" fill="#FFFFFF">
            <g id="Group-20" transform="translate(253.000000, 274.000000)">
                <path d="M70.3053173,66.1886792 L68.1372213,66.1886792 L67.3687822,65.4476844 C70.058319,62.3190395 71.67753,58.2572899 71.67753,53.838765 C71.67753,43.9862779 63.6912521,36 53.838765,36 C43.9862779,36 36,43.9862779 36,53.838765 C36,63.6912521 43.9862779,71.67753 53.838765,71.67753 C58.2572899,71.67753 62.3190395,70.058319 65.4476844,67.3687822 L66.1886792,68.1372213 L66.1886792,70.3053173 L79.9108062,84 L84,79.9108062 L70.3053173,66.1886792 L70.3053173,66.1886792 Z M53.838765,66.1886792 C47.0051458,66.1886792 41.4888508,60.6723842 41.4888508,53.838765 C41.4888508,47.0051458 47.0051458,41.4888508 53.838765,41.4888508 C60.6723842,41.4888508 66.1886792,47.0051458 66.1886792,53.838765 C66.1886792,60.6723842 60.6723842,66.1886792 53.838765,66.1886792 L53.838765,66.1886792 Z" id="search-icon"></path>
            </g>
        </g>
    </g>
</svg>