<?xml version="1.0" encoding="UTF-8" standalone="no"?>
<svg width="48px" height="48px" viewBox="0 0 48 48" version="1.1" xmlns="http://www.w3.org/2000/svg" xmlns:xlink="http://www.w3.org/1999/xlink">
    <!-- Generator: Sketch 3.7.2 (28276) - http://www.bohemiancoding.com/sketch -->
    <title>advanced-icon</title>
    <desc>Created with Sketch.</desc>
    <defs></defs>
    <g id="Page-1" stroke="none" stroke-width="1" fill="none" fill-rule="evenodd">
        <g id="Places-1-Copy-9" transform="translate(-1109.000000, -310.000000)" fill="#FFFFFF">
            <g id="Group-20" transform="translate(253.000000, 274.000000)">
                <path d="M899.549491,62.857438 L904,60.9845041 C903.739664,57.9834711 903.749995,58.1022727 903.490692,55.1012397 L898.783979,54.0206612 C897.930654,52.1859504 897.571143,51.4142562 896.717818,49.5795455 L898.923444,45.2840909 C896.795299,43.1518595 896.880012,43.2365702 894.751867,41.1043388 L890.449089,43.302686 C888.616404,42.446281 887.844694,42.0857438 886.01201,41.2293388 L884.939672,36.5196281 C881.939608,36.2541322 882.057379,36.2644628 879.057314,36 L877.175043,40.4493802 C875.220455,40.9710744 874.398123,41.1911157 872.443536,41.7128099 L868.593246,38.7933884 C866.124185,40.5196281 866.222327,40.4514463 863.753266,42.1766529 L865.170652,46.7923554 C864.008437,48.4483471 863.51979,49.1456612 862.357575,50.8016529 L857.533091,51.0402893 C856.751049,53.9493802 856.782042,53.8336777 856,56.7427686 L860.052773,59.3667355 C860.227364,61.3822314 860.300712,62.2303719 860.475303,64.2469008 L856.933904,67.5289256 C858.204593,70.2603306 858.153972,70.1518595 859.42466,72.8832645 L864.218152,72.2882231 C865.646902,73.7200413 866.249188,74.322314 867.677937,75.7541322 L867.074619,80.5454545 C869.802983,81.821281 869.695543,81.7706612 872.423907,83.0464876 L875.7153,79.5092975 C877.729807,79.6869835 878.578998,79.7623967 880.593505,79.9400826 L883.213396,84 C886.123582,83.2231405 886.00891,83.2530992 888.919097,82.4762397 L889.166003,77.6528926 C890.824097,76.4938017 891.522459,76.0061983 893.180552,74.8471074 L897.796354,76.2727273 C899.52573,73.8068182 899.457547,73.9039256 901.187956,71.4380165 L898.276736,67.5857438 C898.802574,65.6332645 899.023653,64.8109504 899.549491,62.857438 L899.549491,62.857438 Z M880.335234,72.5847107 C873.20285,72.5847107 867.421733,66.803719 867.421733,59.6714876 C867.421733,52.5392562 873.20285,46.7582645 880.335234,46.7582645 C887.467619,46.7582645 893.248736,52.5392562 893.248736,59.6714876 C893.248736,66.803719 887.467619,72.5847107 880.335234,72.5847107 L880.335234,72.5847107 Z" id="advanced-icon"></path>
            </g>
        </g>
    </g>
</svg>
