<?xml version="1.0" encoding="UTF-8" standalone="no"?>
<svg width="48px" height="48px" viewBox="0 0 48 48" version="1.1" xmlns="http://www.w3.org/2000/svg" xmlns:xlink="http://www.w3.org/1999/xlink">
    <!-- Generator: Sketch 3.7.2 (28276) - http://www.bohemiancoding.com/sketch -->
    <title>country-icon</title>
    <desc>Created with Sketch.</desc>
    <defs></defs>
    <g id="Page-1" stroke="none" stroke-width="1" fill="none" fill-rule="evenodd">
        <g id="Places-1-Copy-9" transform="translate(-781.000000, -310.000000)" fill="#FFFFFF">
            <g id="Group-20" transform="translate(253.000000, 274.000000)">
                <path d="M552,36 C538.752,36 528,46.752 528,60 C528,73.248 538.752,84 552,84 C565.248,84 576,73.248 576,60 C576,46.752 565.248,36 552,36 L552,36 Z M549.6,79.032 C540.12,77.856 532.8,69.792 532.8,60 C532.8,58.512 532.992,57.096 533.304,55.704 L544.8,67.2 L544.8,69.6 C544.8,72.24 546.96,74.4 549.6,74.4 L549.6,79.032 L549.6,79.032 Z M566.16,72.936 C565.536,70.992 563.76,69.6 561.6,69.6 L559.2,69.6 L559.2,62.4 C559.2,61.08 558.12,60 556.8,60 L542.4,60 L542.4,55.2 L547.2,55.2 C548.52,55.2 549.6,54.12 549.6,52.8 L549.6,48 L554.4,48 C557.04,48 559.2,45.84 559.2,43.2 L559.2,42.216 C566.232,45.072 571.2,51.96 571.2,60 C571.2,64.992 569.28,69.528 566.16,72.936 L566.16,72.936 Z" id="country-icon"></path>
            </g>
        </g>
    </g>
</svg>