<?xml version="1.0" encoding="UTF-8" standalone="no"?>
<svg width="16px" height="15px" viewBox="0 0 16 15" version="1.1" xmlns="http://www.w3.org/2000/svg" xmlns:xlink="http://www.w3.org/1999/xlink">
    <!-- Generator: sketchtool 3.6.1 (26313) - http://www.bohemiancoding.com/sketch -->
    <title>icon-heart</title>
    <desc>Created with sketchtool.</desc>
    <defs></defs>
    <g id="Prototype" stroke="none" stroke-width="1" fill="none" fill-rule="evenodd">
        <g id="landing-page-2" transform="translate(-758.000000, -2480.000000)" fill="#FD336E">
            <g id="Footer" transform="translate(479.000000, 2469.000000)">
                <path d="M286.995841,11.6481648 C286.841165,11.6481648 286.710286,11.7016894 286.603203,11.8087387 L281.034881,17.1790448 C280.975391,17.2266222 280.893591,17.3039356 280.789483,17.4109849 C280.685374,17.5180342 280.520288,17.7128044 280.294223,17.9952956 C280.068159,18.2777868 279.865891,18.5677119 279.687419,18.8650711 C279.508947,19.1624302 279.34981,19.5222348 279.210007,19.9444848 C279.070204,20.3667347 279.000302,20.7770904 279.000302,21.1755516 C279.000302,22.4839318 279.378068,23.5068473 280.133599,24.2442979 C280.889129,24.9817486 281.93319,25.3504739 283.265779,25.3504739 C283.634621,25.3504739 284.010899,25.2865417 284.394614,25.1586773 C284.778328,25.0308129 285.135272,24.8583446 285.465445,24.6412724 C285.795618,24.4242002 286.079685,24.2205092 286.317648,24.0301993 C286.55561,23.8398895 286.781674,23.6376853 286.995841,23.4235867 C287.210007,23.6376853 287.436071,23.8398895 287.674034,24.0301993 C287.911996,24.2205092 288.196064,24.4242002 288.526237,24.6412724 C288.85641,24.8583446 289.213353,25.0308129 289.597068,25.1586773 C289.980782,25.2865417 290.35706,25.3504739 290.725902,25.3504739 C292.058492,25.3504739 293.102552,24.9817486 293.858083,24.2442979 C294.613614,23.5068473 294.991379,22.4839318 294.991379,21.1755516 C294.991379,19.8612242 294.310211,18.5231081 292.947876,17.1612032 L287.388479,11.8087387 C287.281396,11.7016894 287.150516,11.6481648 286.995841,11.6481648 L286.995841,11.6481648 Z" id="icon-heart" transform="translate(286.995841, 18.499319) scale(-1, -1) translate(-286.995841, -18.499319) "></path>
            </g>
        </g>
    </g>
</svg>