<?xml version="1.0" encoding="UTF-8" standalone="no"?>
<svg width="40px" height="39px" viewBox="0 0 40 39" version="1.1" xmlns="http://www.w3.org/2000/svg" xmlns:xlink="http://www.w3.org/1999/xlink">
    <!-- Generator: Sketch 3.7 (28169) - http://www.bohemiancoding.com/sketch -->
    <title>Shape</title>
    <desc>Created with Sketch.</desc>
    <defs></defs>
    <g id="Page-1" stroke="none" stroke-width="1" fill="none" fill-rule="evenodd">
        <path d="M19.998,0 C8.955,0 0,8.954 0,20 C0,28.837 5.73,36.333 13.678,38.977 C14.678,39.161 15.043,38.544 15.043,38.013 C15.043,37.538 15.026,36.281 15.016,34.613 C9.453,35.82 8.28,31.93 8.28,31.93 C7.37,29.62 6.058,29.005 6.058,29.005 C4.242,27.765 6.195,27.79 6.195,27.79 C8.203,27.93 9.259,29.85 9.259,29.85 C11.042,32.907 13.939,32.024 15.079,31.512 C15.259,30.222 15.777,29.339 16.349,28.839 C11.907,28.334 7.239,26.617 7.239,18.954 C7.239,16.771 8.019,14.984 9.297,13.587 C9.091,13.081 8.404,11.047 9.493,8.294 C9.493,8.294 11.173,7.756 14.993,10.344 C16.624924,9.89926425 18.308563,9.672627 20,9.67 C21.7,9.68 23.41,9.9 25.008,10.345 C28.826,7.757 30.502,8.295 30.502,8.295 C31.592,11.048 30.907,13.082 30.702,13.588 C31.984,14.985 32.757,16.772 32.757,18.955 C32.757,26.638 28.081,28.329 23.627,28.823 C24.343,29.441 24.983,30.661 24.983,32.526 C24.983,35.201 24.958,37.358 24.958,38.013 C24.958,38.549 25.318,39.171 26.334,38.976 C34.274,36.326 40,28.836 40,20 C40,8.955 31.045,0 19.998,0" id="Shape" fill="#FFFFFF"></path>
    </g>
</svg>