<?xml version="1.0" encoding="UTF-8" standalone="no"?>
<svg width="74px" height="74px" viewBox="0 0 74 74" version="1.1" xmlns="http://www.w3.org/2000/svg" xmlns:xlink="http://www.w3.org/1999/xlink" xmlns:sketch="http://www.bohemiancoding.com/sketch/ns">
    <!-- Generator: Sketch 3.5.2 (25235) - http://www.bohemiancoding.com/sketch -->
    <title>feature-icons/illus-feat-autocomplete</title>
    <desc>Created with Sketch.</desc>
    <defs></defs>
    <g id="Page-1" stroke="none" stroke-width="1" fill="none" fill-rule="evenodd" sketch:type="MSPage">
        <g id="features-icons" sketch:type="MSArtboardGroup" transform="translate(-338.000000, -635.000000)" stroke-width="1.3">
            <g id="feature-icons/illus-feat-autocomplete" sketch:type="MSLayerGroup" transform="translate(339.000000, 636.000000)">
                <path d="M71.4791403,35.7650273 C71.4791403,55.5177268 55.4775601,71.5300546 35.7395702,71.5300546 C16.0015803,71.5300546 0,55.5177268 0,35.7650273 C0,16.0129781 16.0015803,0 35.7395702,0 C55.4775601,0 71.4791403,16.0129781 71.4791403,35.7650273" id="Fill-311" stroke-opacity="0.333305027" stroke="#2897C5" fill="#FFFFFF" sketch:type="MSShapeGroup"></path>
                <path d="M25.0176991,49.5816673 C25.0176991,49.5816673 27.4726827,42.8253285 23.4347611,38.2662629 C23.2144753,38.0178586 23.2170746,37.6420006 23.4412592,37.3968476 C24.8351024,35.8719569 27.3102301,35.9044706 30.8659924,42.4286619 C31.7945714,44.1317274 33.7310063,44.0406892 35.414665,43.0789351 C38.6169305,41.2497165 43.2383818,35.4226181 48.0859671,36.8415143 C48.3062528,36.9058914 48.4765032,37.0821154 48.5330367,37.3045088 C48.5895702,37.5269023 48.5245891,37.7629515 48.3621365,37.9255198 L31.5158028,54.7838531 L25.0176991,49.5816673 Z" id="Fill-6500" stroke="#2897C5" fill="#FFFFFF" sketch:type="MSShapeGroup"></path>
                <path d="M57.5082174,35.9259296 C57.5082174,36.2848804 57.2171024,36.5762028 56.8584071,36.5762028 L16.5701643,36.5762028 C16.211469,36.5762028 15.920354,36.2848804 15.920354,35.9259296 L15.920354,34.6253832 C15.920354,34.2664323 16.211469,33.9751099 16.5701643,33.9751099 L56.8584071,33.9751099 C57.2171024,33.9751099 57.5082174,34.2664323 57.5082174,34.6253832 L57.5082174,35.9259296 Z" id="Fill-6501" stroke="#2897C5" fill="#FCFCFD" sketch:type="MSShapeGroup"></path>
                <path d="M36.7142857,13.7674597 C37.3913881,13.7674597 38.036,13.7973722 38.6637168,13.8422411 L38.6637168,11.81664 C38.6637168,11.4576892 38.3726018,11.1663668 38.0139064,11.1663668 L35.414665,11.1663668 C35.0559697,11.1663668 34.7648546,11.4576892 34.7648546,11.81664 L34.7648546,13.8422411 C35.3925714,13.7973722 36.0371833,13.7674597 36.7142857,13.7674597" id="Fill-6502" stroke="#FE336F" fill="#FFFFFF" sketch:type="MSShapeGroup"></path>
                <path d="M18.5195954,31.9751099 C18.5195954,31.9751099 17.8697851,13.7674597 36.7142857,13.7674597 C55.5587863,13.7674597 54.908976,31.9751099 54.908976,31.9751099" id="Fill-6503" stroke="#FE336F" fill="#FFFFFF" sketch:type="MSShapeGroup"></path>
                <path d="M28.6145361,52.4611865 L31.8945315,55.4341261 L16.2234776,55.4341263 L24.544735,48.7723786 L25.1136033,49.2879925 C25.5260483,47.9424414 26.9727778,42.2609047 23.4347611,38.2662629 C23.2144753,38.0178586 23.2170746,37.6420006 23.4412592,37.3968476 C24.8351024,35.8719569 27.3102301,35.9044706 30.8659924,42.4286619 C31.7945714,44.1317274 33.7310063,44.0406892 35.414665,43.0789351 C38.6169305,41.2497165 43.2383818,35.4226181 48.0859671,36.8415143 C48.3062528,36.9058914 48.4765032,37.0821154 48.5330367,37.3045088 C48.5895702,37.5269023 48.5245891,37.7629515 48.3621365,37.9255198 L31.5158028,54.7838531 L28.6145361,52.4611865 Z" id="Fill-6504" stroke="#2897C5" fill="#F2F9FB" sketch:type="MSShapeGroup"></path>
            </g>
        </g>
    </g>
</svg>