<?xml version="1.0" encoding="UTF-8" standalone="no"?>
<svg width="74px" height="74px" viewBox="0 0 74 74" version="1.1" xmlns="http://www.w3.org/2000/svg" xmlns:xlink="http://www.w3.org/1999/xlink" xmlns:sketch="http://www.bohemiancoding.com/sketch/ns">
    <!-- Generator: Sketch 3.5.2 (25235) - http://www.bohemiancoding.com/sketch -->
    <title>feature-icons/illus-feat-rocket</title>
    <desc>Created with Sketch.</desc>
    <defs></defs>
    <g id="Page-1" stroke="none" stroke-width="1" fill="none" fill-rule="evenodd" sketch:type="MSPage">
        <g id="features-icons" sketch:type="MSArtboardGroup" transform="translate(-72.000000, -884.000000)">
            <g id="feature-icons/illus-feat-rocket" sketch:type="MSLayerGroup" transform="translate(73.000000, 885.000000)">
                <path d="M71.4791403,35.7650273 C71.4791403,55.5177268 55.4775601,71.5300546 35.7395702,71.5300546 C16.0015803,71.5300546 0,55.5177268 0,35.7650273 C0,16.0129781 16.0015803,0 35.7395702,0 C55.4775601,0 71.4791403,16.0129781 71.4791403,35.7650273" id="Fill-311" stroke-opacity="0.333305027" stroke="#2897C5" stroke-width="1.3" fill="#FFFFFF" sketch:type="MSShapeGroup"></path>
                <path d="M27.2920354,23.6324489 C27.2920354,23.3648403 27.2169823,23.1029407 27.0747388,22.8760086 L24.9303646,18.2281826 C24.6694657,17.8107132 24.2105697,17.557377 23.7180784,17.557377 C23.2255871,17.557377 22.766691,17.8107132 22.5057922,18.2281826 L20.361418,22.8760086 C20.2191745,23.1029407 20.1441214,23.3648403 20.1441214,23.6324489 L20.1441214,54.6229508 L27.2920354,54.6229508 L27.2920354,23.6324489 Z" id="Fill-7559" stroke="#FE336F" stroke-width="1.3" fill="#FFFFFF" sketch:type="MSShapeGroup"></path>
                <path d="M51.9848293,23.6324489 C51.9848293,23.3648403 51.9097762,23.1029407 51.7675327,22.8760086 L49.6231585,18.2281826 C49.3622597,17.8107132 48.9033636,17.557377 48.4108723,17.557377 C47.918381,17.557377 47.459485,17.8107132 47.1985861,18.2281826 L45.0542119,22.8760086 C44.9119684,23.1029407 44.8369153,23.3648403 44.8369153,23.6324489 L44.8369153,54.6229508 L51.9848293,54.6229508 L51.9848293,23.6324489 Z" id="Fill-7561" stroke="#FE336F" stroke-width="1.3" fill="#FFFFFF" sketch:type="MSShapeGroup"></path>
                <path d="M44.1871049,25.2956284 C44.1871049,23.4952169 40.4758213,11.704918 35.7395702,11.704918 C30.931515,11.704918 27.2920354,23.7341273 27.2920354,25.2956284 L27.2920354,54.6229508 L44.1871049,54.6229508 L44.1871049,25.2956284 Z" id="Fill-7557" stroke="#FFFFFF" stroke-width="4" fill="#FFFFFF" sketch:type="MSShapeGroup"></path>
                <path d="M44.1871049,25.2956284 C44.1871049,23.4952169 40.4758213,11.704918 35.7395702,11.704918 C30.931515,11.704918 27.2920354,23.7341273 27.2920354,25.2956284 L27.2920354,54.6229508 L44.1871049,54.6229508 L44.1871049,25.2956284 Z" id="Fill-7557" stroke="#2897C5" stroke-width="1.3" fill="#FCFCFD" sketch:type="MSShapeGroup"></path>
                <path d="M53.9451448,48.5014611 C48.9704965,45.2035736 44.9645655,41.104037 41.7186503,36.3754483 C40.8218745,35.0681326 40.3382281,33.5168988 40.3382281,31.9314308 L40.3382281,25.0603564 C40.3382281,24.8036004 40.2669989,24.5539766 40.1316634,24.3257491 L38.2868268,20.3888246 L37.2824949,18.2491917 C37.0260697,17.8212651 36.5630798,17.557377 36.0644753,17.557377 C35.5658709,17.557377 35.102881,17.8212651 34.8464558,18.2491917 L33.8421239,20.3888246 L31.9972873,24.3257491 C31.8662255,24.5461313 31.7907226,24.7950419 31.7907226,25.0603564 L31.7907226,31.9314308 C31.7907226,33.5240309 31.3106377,35.0624269 30.4095881,36.3754483 C27.1643852,41.104037 23.1584542,45.2035736 18.1838059,48.5014611 C17.7856346,48.7653492 17.5448799,49.2132457 17.5448799,49.6918102 L17.5448799,53.1965289 C17.5448799,53.9839138 18.1823814,54.6229508 18.9694642,54.6229508 L20.3940484,54.6229508 L33.2153068,54.6229508 L36.0644753,54.6229508 L38.9136439,54.6229508 L53.1594865,54.6229508 C53.945857,54.6229508 54.5840708,53.9839138 54.5840708,53.1965289 L54.5840708,49.6918102 C54.5840708,49.2132457 54.3433161,48.7653492 53.9451448,48.5014611" id="Fill-7563" stroke="#FFFFFF" stroke-width="4" fill="#FFFFFF" sketch:type="MSShapeGroup"></path>
                <path d="M53.9451448,48.5014611 C48.9704965,45.2035736 44.9645655,41.104037 41.7186503,36.3754483 C40.8218745,35.0681326 40.3382281,33.5168988 40.3382281,31.9314308 L40.3382281,25.0603564 C40.3382281,24.8036004 40.2669989,24.5539766 40.1316634,24.3257491 L38.2868268,20.3888246 L37.2824949,18.2491917 C37.0260697,17.8212651 36.5630798,17.557377 36.0644753,17.557377 C35.5658709,17.557377 35.102881,17.8212651 34.8464558,18.2491917 L33.8421239,20.3888246 L31.9972873,24.3257491 C31.8662255,24.5461313 31.7907226,24.7950419 31.7907226,25.0603564 L31.7907226,31.9314308 C31.7907226,33.5240309 31.3106377,35.0624269 30.4095881,36.3754483 C27.1643852,41.104037 23.1584542,45.2035736 18.1838059,48.5014611 C17.7856346,48.7653492 17.5448799,49.2132457 17.5448799,49.6918102 L17.5448799,53.1965289 C17.5448799,53.9839138 18.1823814,54.6229508 18.9694642,54.6229508 L20.3940484,54.6229508 L33.2153068,54.6229508 L36.0644753,54.6229508 L38.9136439,54.6229508 L53.1594865,54.6229508 C53.945857,54.6229508 54.5840708,53.9839138 54.5840708,53.1965289 L54.5840708,49.6918102 C54.5840708,49.2132457 54.3433161,48.7653492 53.9451448,48.5014611" id="Fill-7563" stroke="#2897C5" stroke-width="1.3" fill="#FCFCFD" sketch:type="MSShapeGroup"></path>
                <path d="M53.9451448,48.5014611 C48.9704965,45.2035736 44.9645655,41.104037 41.7186503,36.3754483 C40.8218745,35.0681326 40.3382281,33.5168988 40.3382281,31.9314308 L40.3382281,25.0603564 C40.3382281,24.8036004 40.2669989,24.5539766 40.1316634,24.3257491 L38.2868268,20.3888246 L37.2824949,18.2491917 C37.0260697,17.8212651 36.5630798,17.557377 36.0644753,17.557377 C35.5658709,17.557377 35.102881,17.8212651 34.8464558,18.2491917 L33.8421239,20.3888246 L31.9972873,24.3257491 C31.8662255,24.5461313 31.7907226,24.7950419 31.7907226,25.0603564 L31.7907226,31.9314308 C31.7907226,33.5240309 31.3106377,35.0624269 30.4095881,36.3754483 C27.1643852,41.104037 23.1584542,45.2035736 18.1838059,48.5014611 C17.7856346,48.7653492 17.5448799,49.2132457 17.5448799,49.6918102 L17.5448799,53.1965289 C17.5448799,53.9839138 18.1823814,54.6229508 18.9694642,54.6229508 L20.3940484,54.6229508 L33.2153068,54.6229508 L36.0644753,54.6229508 L38.9136439,54.6229508 L53.1594865,54.6229508 C53.945857,54.6229508 54.5840708,53.9839138 54.5840708,53.1965289 L54.5840708,49.6918102 C54.5840708,49.2132457 54.3433161,48.7653492 53.9451448,48.5014611" id="Fill-7563-Copy" sketch:type="MSShapeGroup"></path>
                <path d="M39.6525431,38.184722 C39.0718797,37.3382336 38.7587182,36.333808 38.7587182,35.3072157 L37.836298,27.3427734 C37.6702624,27.0656905 36.3143055,26 35.9914585,26 C35.6686116,26 34.3126544,27.0656905 34.1466188,27.3427734 L33.2241989,35.3072157 C33.2241989,36.338426 32.9133434,37.3345392 32.3299128,38.184722 C30.2286403,41.2464884 27.6347956,43.9009429 24.4137053,46.0363287 C24.155889,46.2071965 24,46.4972099 24,46.807081 L24,49.0763902 C24,49.5862228 24.4127829,50 24.9224199,50 L47.0604972,50 C47.569673,50 47.9829171,49.5862228 47.9829171,49.0763902 L47.9829171,46.807081 C47.9829171,46.4972099 47.8270281,46.2071965 47.5692117,46.0363287 C44.3481215,43.9009429 41.7542768,41.2464884 39.6525431,38.184722 Z" id="Fill-7563" fill="#F2F9FB" sketch:type="MSShapeGroup"></path>
                <path d="M42.8447749,55.4892077 C42.6958686,54.9269536 42.8910371,55.6766257 41.6737637,50.9744536 C41.3484828,49.7342896 40.1919285,48.863388 38.8691195,48.863388 L37.4060783,48.863388 C37.0916401,48.0384699 36.6601008,47.4699454 36.0644753,47.4699454 C35.4666813,47.4699454 35.035142,48.0391667 34.7207038,48.863388 L33.2598312,48.863388 C31.9370222,48.863388 30.7804679,49.7342896 30.455187,50.9744536 C29.2379136,55.6766257 29.4330821,54.9269536 29.2841758,55.4892077 C29.1757488,55.9072404 29.2769473,56.3531421 29.5516289,56.6875683 C29.8190821,57.0289617 30.2455615,57.2240437 30.6864978,57.2240437 L41.4424528,57.2240437 C41.8833892,57.2240437 42.3098686,57.0289617 42.5773218,56.6875683 C42.8520034,56.3531421 42.9532019,55.9072404 42.8447749,55.4892077" id="Fill-7564" stroke="#2897C5" stroke-width="1.3" fill="#FCFCFD" sketch:type="MSShapeGroup"></path>
                <path d="M35.7395702,47.4699454 C35.1702425,47.4699454 34.7592527,48.0384699 34.4597878,48.863388 L33.0684805,48.863388 C31.8086624,48.863388 30.7071821,49.7342896 30.3973908,50.9744536 C29.2380828,55.6766257 29.4239576,54.9269536 29.282142,55.4892077 C29.1788782,55.9072404 29.2752577,56.3531421 29.5368593,56.6875683 C29.7915766,57.0289617 30.1977475,57.2240437 30.6176868,57.2240437 L35.7395702,57.2240437 L35.7395702,47.4699454 Z" id="Fill-7566" stroke="#2897C5" stroke-width="1.3" fill="#FCFCFD" sketch:type="MSShapeGroup"></path>
                <path d="M36.0644753,22.1092896 C34.4496154,22.1092896 33.1403287,23.273929 33.1403287,24.7103825 L38.988622,24.7103825 C38.988622,23.273929 37.6793353,22.1092896 36.0644753,22.1092896" id="Fill-7567" stroke="#2897C5" stroke-width="1.3" fill="#FCFCFD" sketch:type="MSShapeGroup"></path>
                <path d="M42.5773218,56.7233333 C42.3098686,57.0419672 41.8833892,57.2240437 41.4424528,57.2240437 L30.6864978,57.2240437 C30.2455615,57.2240437 29.8190821,57.0419672 29.5516289,56.7233333 C29.2769473,56.4112022 29.1757488,55.9950273 29.2841758,55.6048634 L29.3781458,55.273224 L42.7508049,55.273224 L42.8447749,55.6048634 C42.9532019,55.9950273 42.8520034,56.4112022 42.5773218,56.7233333" id="Fill-7571" stroke="#2897C5" stroke-width="1.3" fill="#FCFCFD" sketch:type="MSShapeGroup"></path>
            </g>
        </g>
    </g>
</svg>