<?xml version="1.0" encoding="UTF-8" standalone="no"?>
<svg width="74px" height="74px" viewBox="0 0 74 74" version="1.1" xmlns="http://www.w3.org/2000/svg" xmlns:xlink="http://www.w3.org/1999/xlink" xmlns:sketch="http://www.bohemiancoding.com/sketch/ns">
    <!-- Generator: Sketch 3.5.2 (25235) - http://www.bohemiancoding.com/sketch -->
    <title>feature-icons/illus-feat-relevance</title>
    <desc>Created with Sketch.</desc>
    <defs></defs>
    <g id="Page-1" stroke="none" stroke-width="1" fill="none" fill-rule="evenodd" sketch:type="MSPage">
        <g id="features-icons" sketch:type="MSArtboardGroup" transform="translate(-337.000000, -717.000000)" stroke-width="1.3">
            <g id="feature-icons/illus-feat-relevance" sketch:type="MSLayerGroup" transform="translate(338.000000, 718.000000)">
                <g id="Group" sketch:type="MSShapeGroup">
                    <path d="M71.4791403,35.7650273 C71.4791403,55.5177268 55.4775601,71.5300546 35.7395702,71.5300546 C16.0015803,71.5300546 0,55.5177268 0,35.7650273 C0,16.0129781 16.0015803,0 35.7395702,0 C55.4775601,0 71.4791403,16.0129781 71.4791403,35.7650273" id="Fill-311" stroke-opacity="0.333305027" stroke="#2897C5" fill="#FFFFFF"></path>
                    <path d="M20.5124339,25.1152426 C19.9685426,24.0618 19.6026994,22.9960022 19.3609699,22.1090295 L22.8348561,22.1090295 L22.8348561,23.5402809 C22.8348561,25.4865486 23.2715287,27.3300732 24.0441532,28.9843683 C22.612621,28.2007891 21.4429623,26.9171497 20.5124339,25.1152426 M48.8272708,23.5402809 L48.8272708,22.1090295 L52.3005072,22.1090295 C52.0587777,22.9960022 51.6935843,24.0618 51.1490432,25.1152426 C50.2185148,26.9171497 49.0495059,28.2007891 47.6179737,28.9843683 C48.3899484,27.3300732 48.8272708,25.4865486 48.8272708,23.5402809 M56.6158979,20.3461388 C56.6685325,19.7986087 56.4878852,19.2543301 56.1187929,18.847259 C55.7490508,18.4395377 55.2246539,18.2073902 54.6755641,18.2073902 L48.8272708,18.2073902 L48.8272708,15.6062973 L35.8310635,15.6062973 L22.8348561,15.6062973 L22.8348561,18.2073902 L16.9865628,18.2073902 C16.4368233,18.2073902 15.9124263,18.4395377 15.543334,18.847259 C15.1735919,19.2543301 14.9929446,19.7986087 15.0455793,20.3461388 C16.0306918,30.5372208 22.5177487,33.3704612 32.4137107,35.9858601 C34.6841482,40.6047508 32.7139231,45.8791169 29.0470432,46.7082153 C28.4537664,46.8421716 28.0333391,47.3662918 28.0333391,47.9755978 L28.0333391,49.4205049 L35.8310635,49.4205049 L43.6287879,49.4205049 L43.6287879,47.9755978 C43.6287879,47.3662918 43.2083606,46.8421716 42.6150837,46.7082153 C38.9482038,45.8791169 36.977329,40.6047508 39.2484162,35.9858601 C49.1443783,33.3704612 55.6307853,30.5372208 56.6158979,20.3461388" id="Fill-6861" stroke="#2897C5" fill="#FCFCFD"></path>
                    <path d="M48.8270759,55.9234973 C48.8270759,56.6413989 48.2448458,57.2240437 47.5274551,57.2240437 L24.1342819,57.2240437 C23.4168913,57.2240437 22.8346612,56.6413989 22.8346612,55.9234973 L22.8346612,50.7213115 C22.8346612,50.0034098 23.4168913,49.420765 24.1342819,49.420765 L47.5274551,49.420765 C48.2448458,49.420765 48.8270759,50.0034098 48.8270759,50.7213115 L48.8270759,55.9234973 Z" id="Fill-6862" stroke="#2897C5" fill="#F2F9FB"></path>
                    <path d="M52.0206339,41.6898617 C52.0524746,41.6853098 52.0758678,41.6579984 52.0758678,41.6254847 L52.0758678,41.6092279 C52.0758678,41.5767142 52.0524746,41.550053 52.0206339,41.5448508 C50.2115618,41.2730366 49.1712154,40.2319492 48.8995947,38.4215885 C48.895046,38.3897251 48.867754,38.3663153 48.8352635,38.3663153 L48.8190182,38.3663153 C48.7865277,38.3663153 48.7592357,38.3897251 48.754687,38.4215885 C48.4830662,40.2319492 47.4433697,41.2730366 45.632998,41.5448508 C45.6011573,41.550053 45.5777641,41.5773645 45.5777641,41.6092279 L45.5777641,41.6254847 C45.5777641,41.6579984 45.6011573,41.6853098 45.6336478,41.6898617 C47.4433697,41.961676 48.4830662,43.0034137 48.754687,44.8137743 C48.7592357,44.8456377 48.7865277,44.8690475 48.8190182,44.8690475 L48.8424114,44.8690475 C48.8703532,44.8690475 48.8943962,44.8482388 48.8989449,44.820277 C49.1686162,43.0053645 50.2089626,41.9623262 52.0206339,41.6898617" id="Fill-6866" stroke="#FE336F" fill="#FFFFFF"></path>
                    <path d="M25.9952088,39.7828705 C26.0458941,39.7750672 26.0835831,39.7314989 26.0835831,39.6801273 L26.0835831,39.6534661 C26.0835831,39.6020945 26.0458941,39.5585262 25.9952088,39.550723 C23.0996539,39.1156902 21.4354895,37.4496902 21.0007664,34.5533732 C20.9936185,34.5020016 20.9500812,34.4642858 20.8980963,34.4642858 L20.8721039,34.4642858 C20.8207689,34.4642858 20.7772316,34.5020016 20.7694339,34.5533732 C20.3347107,37.4496902 18.6705464,39.1163404 15.7749914,39.550723 C15.7243062,39.5585262 15.6866172,39.6020945 15.6866172,39.6534661 L15.6866172,39.6801273 C15.6866172,39.7314989 15.7243062,39.7750672 15.7749914,39.7828705 C18.6705464,40.217253 20.3353606,41.883253 20.7694339,44.7808705 C20.7772316,44.8315918 20.8207689,44.8686574 20.8721039,44.8686574 L20.9097929,44.8686574 C20.9546298,44.8686574 20.9929686,44.8361437 20.9994668,44.7912749 C21.4315906,41.8878049 23.0964048,40.2179033 25.9952088,39.7828705" id="Fill-6867" stroke="#FE336F" fill="#FFFFFF"></path>
                </g>
            </g>
        </g>
    </g>
</svg>