<?xml version="1.0" encoding="UTF-8" standalone="no"?>
<svg width="49px" height="16px" viewBox="0 0 49 16" version="1.1" xmlns="http://www.w3.org/2000/svg" xmlns:xlink="http://www.w3.org/1999/xlink">
    <!-- Generator: sketchtool 3.6.1 (26313) - http://www.bohemiancoding.com/sketch -->
    <title>Algolia_logo_bg-dark Copy 4</title>
    <desc>Created with sketchtool.</desc>
    <defs>
        <path d="M28.8974357,5.94399302 L28.2651138,8.19589019 L30.301588,7.07416655 C30.0058302,6.52914829 29.5011584,6.11703984 28.8974357,5.94399302 Z M23.9002012,8.24241173 C23.9002012,10.6547755 25.8459176,12.6108374 28.2468462,12.6108374 C30.6477748,12.6108374 32.5934911,10.6547755 32.5934911,8.24241173 C32.5934911,5.83004791 30.6477748,3.87398602 28.2468462,3.87398602 C25.8459176,3.87398602 23.9002012,5.83004791 23.9002012,8.24241173 Z M28.2468462,5.12210765 C29.9587257,5.12210765 31.3515926,6.52195407 31.3515926,8.24241173 C31.3515926,9.96286939 29.9587257,11.3627158 28.2468462,11.3627158 C26.5349666,11.3627158 25.1420998,9.96286939 25.1420998,8.24241173 C25.1420998,6.52195407 26.5349666,5.12210765 28.2468462,5.12210765 Z M29.7470897,3.3336681 C29.7482601,3.31673393 29.7519662,3.30058741 29.7519662,3.28325943 L29.7519662,2.8894417 C29.7517711,2.45466692 29.4026158,2.10200315 28.9717308,2.10180624 L27.606124,2.10180624 C27.1754341,2.10200315 26.8260837,2.45447002 26.8260837,2.8894417 L26.8260837,3.27636762 C27.2608698,3.15349648 27.7182828,3.08635056 28.1914955,3.08635056 C28.7339541,3.08635056 29.2565167,3.1737781 29.7470897,3.3336681 Z M24.9800469,4.1045663 C24.675365,3.79699465 24.1810859,3.79719156 23.876404,4.1045663 L23.7384975,4.24378087 C23.4338156,4.5511556 23.4340106,5.05012267 23.7384975,5.35769431 L23.8853768,5.50576978 C24.1980561,4.99932018 24.5961711,4.55233706 25.0588507,4.18431439 L24.9800469,4.1045663 Z" id="path-1"></path>
    </defs>
    <g id="Prototype" stroke="none" stroke-width="1" fill="none" fill-rule="evenodd">
        <g id="landing-page-2" transform="translate(-32.000000, -17.000000)">
            <g id="community-navigation" transform="translate(-31.000000, -9.000000)">
                <g id="Group-3" transform="translate(63.000000, 26.000000)">
                    <g id="Algolia_logo_bg-dark-Copy-4">
                        <g id="Fill-4">
                            <use fill="#00B7E5" fill-rule="evenodd" xlink:href="#path-1"></use>
                            <use fill="none" xlink:href="#path-1"></use>
                        </g>
                        <path d="M8.48882599,11.5599343 C8.31080104,11.1048107 8.14362419,10.6575502 7.98671428,10.2177783 C7.82980438,9.77800642 7.66747042,9.33055867 7.50029357,8.87562225 L2.57332248,8.87562225 L1.58479006,11.5599343 L0,11.5599343 C0.418232704,10.4478675 0.810507472,9.41929935 1.17682431,8.47385536 C1.54294742,7.52859858 1.90093447,6.63126927 2.25175403,5.78224184 C2.60199244,4.93283998 2.94990626,4.12163032 3.29510805,3.34823841 C3.64030985,2.5748465 4.00120264,1.80913048 4.37778642,1.05090312 L5.77428459,1.05090312 C6.15086837,1.80913048 6.51176116,2.5748465 6.85696295,3.34823841 C7.20216475,4.12163032 7.54988485,4.93283998 7.90051069,5.78224184 C8.2507491,6.63126927 8.60892987,7.52859858 8.9752467,8.47385536 C9.34136982,9.41929935 9.73364459,10.4478675 10.152071,11.5599343 L8.48882599,11.5599343 L8.48882599,11.5599343 Z M7.06094583,7.66264569 C6.72601098,6.78291474 6.39398187,5.9314535 6.06466478,5.10732588 C5.73496026,4.28338549 5.39227677,3.49239522 5.03680803,2.73398064 C4.67049119,3.49239522 4.32277109,4.28338549 3.993454,5.10732588 C3.66394319,5.9314535 3.33675698,6.78291474 3.01267022,7.66264569 L7.06094583,7.66264569 L7.06094583,7.66264569 Z" id="Fill-5" fill="#FFFFFF"></path>
                        <path d="M13.6891744,12.0853859 C12.7933048,12.0648848 12.1580552,11.8754396 11.78304,11.5164809 C11.4078319,11.1579019 11.2207101,10.5992475 11.2207101,9.84051776 L11.2207101,0.246012944 L12.6735082,0 L12.6735082,9.60988063 C12.6735082,9.84602268 12.6945353,10.0405931 12.7360108,10.1943512 C12.777872,10.3479195 12.8455831,10.4711158 12.939144,10.5633706 C13.0328978,10.6554356 13.1580958,10.7247217 13.3143521,10.7708491 C13.4708014,10.8169765 13.6633246,10.855511 13.8923077,10.8862626 L13.6891744,12.0853859" id="Fill-6" fill="#FFFFFF"></path>
                        <path d="M20.9990633,11.5452518 C20.8752255,11.6273743 20.6348232,11.731825 20.2782391,11.8595501 C19.9216551,11.9872753 19.5055447,12.0512324 19.0300993,12.0512324 C18.5443182,12.0512324 18.0868647,11.9744081 17.6581217,11.8213272 C17.2291872,11.6678679 16.8544199,11.4303938 16.5340111,11.1085265 C16.2136022,10.78647 15.9603759,10.385697 15.774332,9.90545059 C15.5884796,9.42520417 15.4952663,8.85299568 15.4952663,8.18882512 C15.4952663,7.60639862 15.5829289,7.07241305 15.7588284,6.58705763 C15.9345365,6.10189144 16.190251,5.68276386 16.5263549,5.33024256 C16.862076,4.97772125 17.2728272,4.70183502 17.7587997,4.50258385 C18.2445808,4.30333268 18.7923766,4.20361248 19.402187,4.20361248 C20.074012,4.20361248 20.6604712,4.25243185 21.1619474,4.34931372 C21.6632322,4.44657402 22.0843191,4.53588699 22.4253994,4.61744183 L22.4253994,11.7293651 C22.4253994,12.9555262 22.105182,13.8443037 21.4643643,14.3960762 C20.8231638,14.9478487 19.8517929,15.2235457 18.549486,15.2235457 C18.0430334,15.2235457 17.5650997,15.1830521 17.1154938,15.101308 C16.6658878,15.0191855 16.2756168,14.9224929 15.9450636,14.8100948 L16.2086257,13.5686067 C16.4978359,13.6806264 16.8519317,13.7805358 17.2705303,13.8673889 C17.689129,13.9540527 18.1257195,13.9977631 18.5804933,13.9977631 C19.4383622,13.9977631 20.0558287,13.8291659 20.4332757,13.4917824 C20.8105312,13.1547774 20.9990633,12.6181427 20.9990633,11.8824461 L20.9990633,11.5452518 L20.9990633,11.5452518 Z M20.4022683,5.51416671 C20.1591864,5.4785929 19.8311214,5.46042756 19.417882,5.46042756 C18.6426994,5.46042756 18.045713,5.71114722 17.6271143,6.21164042 C17.2085157,6.71232285 16.9993121,7.3763042 16.9993121,8.20396291 C16.9993121,8.66396252 17.0584556,9.05735586 17.1775084,9.38433214 C17.2963697,9.71149764 17.4565742,9.98189643 17.6581217,10.1966638 C17.8596692,10.4110528 18.092224,10.5696212 18.3557861,10.671612 C18.6193482,10.7739813 18.8907578,10.8248822 19.1698236,10.8248822 C19.5520556,10.8248822 19.9034718,10.7713322 20.2238806,10.6640431 C20.5440981,10.5565648 20.7975158,10.431678 20.9835597,10.2886259 L20.9835597,5.62921392 C20.8386675,5.58834189 20.6451589,5.55011897 20.4022683,5.51416671 Z" id="Fill-7" fill="#FFFFFF"></path>
                        <path d="M36.1306239,12.0853859 C35.2346907,12.064695 34.5995329,11.8754396 34.2245718,11.5164809 C33.8496107,11.1579019 33.6621302,10.5990577 33.6621302,9.84051776 L33.6621302,0.246012944 L35.1152972,0 L35.1152972,9.6096908 C35.1152972,9.84583286 35.1359355,10.0404033 35.1775978,10.1941614 C35.2192602,10.3479195 35.2869615,10.4709259 35.3808946,10.5631808 C35.474442,10.6554356 35.5992362,10.7247217 35.7556628,10.7708491 C35.9118966,10.8169765 36.1043921,10.8553212 36.3337278,10.8860728 L36.1306239,12.0853859" id="Fill-8" fill="#FFFFFF"></path>
                        <path d="M39.0051056,2.44163632 C38.7084813,2.44163632 38.4558339,2.35515399 38.2484827,2.18257714 C38.0404719,2.00961248 37.9366864,1.77692459 37.9366864,1.48354394 C37.9366864,1.1903572 38.0404719,0.9572815 38.2484827,0.784704649 C38.4558339,0.611739985 38.7084813,0.52545156 39.0051056,0.52545156 C39.3019497,0.52545156 39.5543772,0.611739985 39.762388,0.784704649 C39.9697392,0.9572815 40.0739645,1.1903572 40.0739645,1.48354394 C40.0739645,1.77692459 39.9697392,2.00961248 39.762388,2.18257714 C39.5543772,2.35515399 39.3019497,2.44163632 39.0051056,2.44163632 L39.0051056,2.44163632 Z M38.1860355,3.91804098 L39.842426,3.91804098 L39.842426,12.0853859 L38.1860355,12.0853859 L38.1860355,3.91804098 Z" id="Fill-9" fill="#FFFFFF"></path>
                        <path d="M44.9224195,3.67816092 C45.5134692,3.67816092 46.0120697,3.75783008 46.4186119,3.91635752 C46.8247631,4.07508768 47.1519514,4.29949928 47.3999812,4.58938961 C47.648011,4.87968538 47.8248959,5.22451296 47.9304405,5.62407509 C48.0357896,6.02363721 48.0887574,6.46414888 48.0887574,6.94581281 L48.0887574,12.2826329 C47.9621039,12.3045267 47.785219,12.3345294 47.5584935,12.3728436 C47.3313772,12.4111577 47.0755293,12.4466338 46.7905588,12.4794745 C46.5055884,12.5123153 46.1967728,12.5423179 45.8645027,12.5696852 C45.5318418,12.5968497 45.2019172,12.6108374 44.8749244,12.6108374 C44.4103327,12.6108374 43.9830725,12.5615764 43.5925575,12.4630542 C43.2020425,12.364532 42.8642998,12.2084372 42.5793294,11.9951753 C42.294359,11.7817106 42.0727153,11.499929 41.9143984,11.1494253 C41.7560815,10.7991242 41.6769231,10.3776683 41.6769231,9.88505747 C41.6769231,9.41454317 41.7691769,9.00930487 41.9540754,8.66995074 C42.1383875,8.33079933 42.3891537,8.05712664 42.7059829,7.84893268 C43.0226167,7.64114415 43.3920228,7.48768473 43.8142012,7.38916256 C44.2361841,7.29064039 44.6794714,7.24137931 45.1440631,7.24137931 C45.2916301,7.24137931 45.4448652,7.24948813 45.6031821,7.26590849 C45.761499,7.28232885 45.9119978,7.30462811 46.0542875,7.33179266 C46.1967728,7.35915993 46.3208854,7.38368911 46.4266254,7.40558292 C46.5319746,7.42767946 46.6058558,7.44409982 46.6480736,7.45484401 L46.6480736,7.02791461 C46.6480736,6.77613574 46.6216875,6.52719496 46.5689152,6.28068682 C46.5159474,6.0343814 46.4209573,5.81564597 46.2839448,5.62407509 C46.1467368,5.43250421 45.9592974,5.2792475 45.7218221,5.16410225 C45.4843467,5.04936244 45.175531,4.99178982 44.7957659,4.99178982 C44.3100653,4.99178982 43.8855415,5.02746863 43.5212172,5.09862353 C43.1572838,5.16977843 42.8854087,5.24377141 42.7059829,5.32019704 L42.5318343,4.05582923 C42.7218146,3.96845669 43.0386438,3.8835168 43.4817357,3.80141499 C43.925023,3.71911046 44.4052509,3.67816092 44.9224195,3.67816092 L44.9224195,3.67816092 Z M45.049073,11.3300493 C45.3973702,11.3300493 45.7061858,11.3217377 45.9753246,11.3053174 C46.2444633,11.288897 46.4686478,11.2590971 46.6480736,11.2151067 L46.6480736,8.66995074 C46.5423336,8.61541892 46.3709213,8.5687932 46.1336414,8.53047903 C45.8959706,8.49216485 45.6084593,8.47270368 45.2707166,8.47270368 C45.049073,8.47270368 44.8141385,8.48932677 44.5663042,8.52216749 C44.3182744,8.55500821 44.091158,8.62352774 43.8855415,8.72732064 C43.6795341,8.83151898 43.5079264,8.97362606 43.3709139,9.15445276 C43.2337059,9.33487401 43.1651019,9.57307061 43.1651019,9.86863711 C43.1651019,10.4159825 43.3337778,10.7962862 43.671716,11.0097509 C44.0094587,11.2234183 44.4685777,11.3300493 45.049073,11.3300493 L45.049073,11.3300493 Z" id="Fill-10" fill="#FFFFFF"></path>
                    </g>
                </g>
            </g>
        </g>
    </g>
</svg>