<?xml version="1.0" encoding="UTF-8" standalone="no"?>
<svg width="59px" height="19px" viewBox="0 0 59 19" version="1.1" xmlns="http://www.w3.org/2000/svg" xmlns:xlink="http://www.w3.org/1999/xlink">
    <!-- Generator: sketchtool 3.6.1 (26313) - http://www.bohemiancoding.com/sketch -->
    <title>logo-algolia-small</title>
    <desc>Created with sketchtool.</desc>
    <defs></defs>
    <g id="Prototype" stroke="none" stroke-width="1" fill="none" fill-rule="evenodd">
        <g id="landing-page-2" transform="translate(-808.000000, -2477.000000)">
            <g id="Footer" transform="translate(479.000000, 2469.000000)">
                <g id="copyrights" transform="translate(95.000000, 0.000000)">
                    <g id="logo-algolia-small" transform="translate(234.000000, 8.000000)">
                        <path d="M35.45428,7.41914815 L34.67784,10.2163704 L37.17708,8.82374074 C36.81364,8.14748148 36.19532,7.63588889 35.45428,7.42055556 L35.45428,7.41914815 Z M29.323,10.2754815 C29.323,13.2704444 31.71014,15.6975185 34.6566,15.6975185 C37.60188,15.6975185 39.9902,13.2711481 39.9902,10.2768889 C39.9902,7.28192593 37.60188,4.85414815 34.6566,4.85414815 C31.71014,4.85414815 29.323,7.28192593 29.323,10.2768889 L29.323,10.2754815 Z M34.6566,6.40159259 C36.757,6.40159259 38.46564,8.13903704 38.46564,10.2733704 C38.46564,12.4084074 36.75464,14.1458519 34.65424,14.1458519 C32.5562,14.1458519 30.84638,12.4084074 30.84638,10.2754815 C30.84638,8.13903704 32.55738,6.40159259 34.65778,6.40159259 L34.6566,6.40159259 Z M36.4974,4.17859259 C36.4974,4.15748148 36.50212,4.13777778 36.50212,4.11525926 L36.50212,3.62688889 C36.50212,3.08644444 36.07378,2.64874074 35.54632,2.64874074 L33.87072,2.64874074 C33.33972,2.64874074 32.91256,3.08644444 32.91256,3.62688889 L32.91256,4.10681481 C33.44592,3.9527037 34.0076,3.87037037 34.58816,3.87037037 C35.25368,3.87037037 35.89442,3.97662963 36.49622,4.17788889 L36.4974,4.17859259 Z M30.64814,5.13633333 C30.27408,4.75351852 29.66874,4.75351852 29.2935,5.13633333 L29.12476,5.30803704 C28.7507,5.68944444 28.7507,6.30940741 29.12476,6.69081481 L29.3053,6.87448148 C29.6888,6.24748148 30.1785,5.69225926 30.7449,5.23696296 L30.64814,5.13774074 L30.64814,5.13633333 Z" id="Mask" fill="#00B7E5"></path>
                        <path d="M10.41468,15.1521481 C10.19638,14.5870741 9.98988,14.0311481 9.79872,13.4850741 C9.60638,12.9411111 9.40696,12.3858889 9.20164,11.818 L3.15768,11.818 L1.94464,15.1521481 L0,15.1521481 C0.5133,13.7714815 0.99474,12.4942593 1.44432,11.3218889 C1.89272,10.1474074 2.33168,9.03414815 2.76238,7.9792963 C3.19544,6.92725926 3.62378,5.92237037 4.04622,4.96251852 C4.47102,4.00266667 4.91234,3.05196296 5.3749,2.1097037 L7.08826,2.1097037 C7.54846,3.05196296 7.99332,4.00125926 8.41576,4.96251852 C8.84056,5.92237037 9.26536,6.92866667 9.69724,7.98281481 C10.12676,9.03907407 10.56572,10.1523333 11.0153,11.3261111 C11.4637,12.5005926 11.94514,13.7771111 12.45962,15.1570741 L10.41822,15.1570741 L10.41468,15.1521481 Z M8.66356,10.3141852 C8.25056,9.22203704 7.84464,8.16507407 7.44108,7.14259259 C7.03634,6.12011111 6.61508,5.13774074 6.17848,4.19618519 C5.73008,5.14196296 5.30528,6.12362963 4.89936,7.14611111 C4.4958,8.16859259 4.09342,9.22696296 3.69576,10.3177037 L8.66356,10.3177037 L8.66356,10.3141852 Z M17.5501703,15.8044815 C16.4527703,15.7784444 15.6739703,15.5448148 15.2137703,15.097963 C14.7535703,14.6532222 14.5258303,13.9593704 14.5258303,13.0171111 L14.5258303,1.10974074 L16.3088103,0.802222222 L16.3088103,12.7307037 C16.3088103,13.0241481 16.3324103,13.2662222 16.3831503,13.4569259 C16.4350703,13.6462222 16.5176703,13.7996296 16.6309503,13.9157407 C16.7489503,14.029037 16.9023503,14.1162963 17.0935103,14.1718889 C17.2846703,14.2260741 17.5206703,14.2739259 17.8015103,14.314037 L17.5537103,15.8037778 L17.5501703,15.8044815 Z M25.76412,14.3745556 C25.61072,14.4758889 25.31572,14.6046667 24.87912,14.7644074 C24.44252,14.9227407 23.93158,15.0008519 23.34748,15.0008519 C22.75158,15.0008519 22.19108,14.9065556 21.6648,14.7172593 C21.13852,14.5258519 20.67832,14.2324074 20.2842,13.8305926 C19.89244,13.4322963 19.5821,12.9340741 19.352,12.3387407 C19.12544,11.7448148 19.009793,11.0354815 19.009793,10.2107407 C19.009793,9.48944444 19.118353,8.82514815 19.334293,8.22207407 C19.550233,7.619 19.8653,7.09896296 20.275933,6.66125926 C20.68894,6.22425926 21.191613,5.88155556 21.788693,5.63525926 C22.384593,5.38685185 23.056013,5.263 23.804133,5.263 C24.63014,5.263 25.349933,5.32211111 25.963533,5.44385185 C26.577133,5.56418519 27.09634,5.67537037 27.514053,5.77459259 L27.514053,14.6060741 C27.514053,16.1260741 27.121113,17.2308889 26.334053,17.9162963 C25.548173,18.5995926 24.356373,18.9422963 22.758653,18.9422963 C22.136793,18.9422963 21.550333,18.8916296 21.000453,18.7888889 C20.445853,18.6882593 19.967953,18.5686296 19.563213,18.4292963 L19.881813,16.8888889 C20.235813,17.0261111 20.672413,17.1492593 21.185713,17.2576296 C21.699013,17.3667037 22.235913,17.4208889 22.792873,17.4208889 C23.843073,17.4208889 24.601813,17.2125926 25.064373,16.7945926 C25.528113,16.3758889 25.760573,15.7087778 25.760573,14.7960741 L25.760573,14.3780741 L25.76412,14.3745556 Z M25.03252,6.88714815 C24.7328,6.84351852 24.33042,6.81959259 23.8242,6.81959259 C22.87312,6.81959259 22.14034,7.13203704 21.62704,7.75411111 C21.11256,8.37477778 20.8565,9.19881481 20.8565,10.2248148 C20.8565,10.7969259 20.9273,11.2852963 21.0748,11.6906296 C21.22112,12.0973704 21.417,12.433037 21.6648,12.699037 C21.9126,12.9664444 22.1958,13.1627778 22.5203,13.2901481 C22.84362,13.4168148 23.17756,13.4794444 23.51976,13.4794444 C23.98822,13.4794444 24.4201,13.4132963 24.81304,13.2781852 C25.20598,13.1458889 25.51632,12.9910741 25.74524,12.8137407 L25.74524,7.0292963 C25.56824,6.97933333 25.32988,6.93218519 25.03134,6.88714815 L25.03252,6.88714815 Z M44.32906,15.8044815 C43.2293,15.7784444 42.4505,15.5448148 41.9903,15.097963 C41.530107,14.6532222 41.300007,13.9593704 41.300007,13.0171111 L41.300007,1.10974074 L43.0818,0.802222222 L43.0818,12.7307037 C43.0818,13.0241481 43.10776,13.2655185 43.15968,13.4569259 C43.21042,13.6462222 43.29302,13.7996296 43.40748,13.9143333 C43.52312,14.0325556 43.67652,14.1148889 43.86768,14.174 C44.060013,14.2331111 44.29602,14.280963 44.57804,14.3161481 L44.33024,15.8058889 L44.32906,15.8044815 Z" id="Mask" fill="#2B395C"></path>
                        <path d="M47.8549,3.07377778 C47.49146,3.07377778 47.1823,2.96681481 46.92742,2.75218519 C46.66782,2.53685185 46.54038,2.24833333 46.54038,1.88381481 C46.54038,1.52 46.667827,1.23007407 46.92388,1.01614815 C47.176407,0.801518519 47.486747,0.694555556 47.85018,0.694555556 C48.215987,0.694555556 48.52278,0.801518519 48.78002,1.01614815 C49.0349,1.22937037 49.16352,1.52 49.16352,1.88381481 C49.16352,2.24833333 49.03372,2.53685185 48.7812,2.75218519 C48.5275,2.9647037 48.2148,3.07377778 47.85372,3.07377778 L47.8549,3.07377778 Z M46.8519,4.90622222 L48.881507,4.90622222 L48.881507,15.0444815 L46.8519,15.0444815 L46.8519,4.90622222 L46.8519,4.90622222 Z M55.11544,4.60785185 C55.83996,4.60785185 56.45238,4.70707407 56.95034,4.90340741 C57.44948,5.10114815 57.85068,5.37911111 58.15394,5.73940741 C58.46074,6.09618519 58.67668,6.52403704 58.8053,7.01944444 C58.9351,7.51625926 59,8.06233333 59,8.66048148 L59,15.2872593 L58.351,15.3984444 C58.07134,15.4455926 57.75746,15.4927407 57.407,15.5307407 C57.05772,15.5715556 56.67894,15.6088519 56.27066,15.6426296 C55.86238,15.6785185 55.45646,15.694 55.05526,15.694 C54.486507,15.694 53.96258,15.6348889 53.4835,15.5124444 C53.00442,15.3907037 52.59024,15.1971852 52.24096,14.9332963 C51.8905,14.6672963 51.6191,14.318963 51.4244,13.8812593 C51.230873,13.4477778 51.132933,12.9235185 51.132933,12.3127037 C51.132933,11.7272222 51.24622,11.2247778 51.47514,10.8025556 C51.699333,10.3817407 52.00614,10.0425556 52.395533,9.78359259 C52.78494,9.52955556 53.238053,9.33955556 53.756073,9.21640741 C54.272913,9.09466667 54.81808,9.03274074 55.386833,9.03274074 C55.568553,9.03274074 55.756173,9.0447037 55.950873,9.0637037 C56.1444,9.08411111 56.328473,9.11085185 56.50548,9.14674074 L56.96096,9.23751852 C57.09076,9.26496296 57.18044,9.28466667 57.23236,9.29874074 L57.23236,8.76674074 C57.23236,8.455 57.2005,8.14607407 57.1356,7.83996296 C57.0707,7.53244444 56.95388,7.26081481 56.78514,7.02437037 C56.61758,6.78792593 56.387473,6.59651852 56.09602,6.45366667 C55.80102,6.31151852 55.42342,6.24044444 54.95614,6.24044444 C54.360233,6.24044444 53.83986,6.28407407 53.39264,6.37274074 C52.9466,6.4607037 52.61384,6.55288889 52.392,6.64718519 L52.1796,5.07862963 C52.412053,4.96744444 52.80028,4.86188889 53.344253,4.75914815 C53.887053,4.65781481 54.477053,4.60574074 55.11072,4.60574074 L55.11544,4.60785185 Z M55.2712,14.1071481 C55.69836,14.1071481 56.07714,14.0951852 56.40754,14.0761852 C56.73794,14.0585926 57.01288,14.022 57.23354,13.9678148 L57.23354,10.803963 C57.10374,10.7364074 56.89134,10.6787037 56.60106,10.6315556 C56.3096,10.5844074 55.95678,10.5604815 55.542607,10.5604815 C55.271207,10.5604815 54.982107,10.5808889 54.678847,10.6195926 C54.374407,10.6618148 54.095927,10.746963 53.843407,10.8764444 C53.590887,11.0059259 53.379667,11.1811481 53.212107,11.4056296 C53.043367,11.6301111 52.959587,11.9256667 52.959587,12.2922963 C52.959587,12.9720741 53.169627,13.4435556 53.584987,13.7088519 C53.99798,13.9748519 54.564387,14.1071481 55.27474,14.1071481 L55.2712,14.1071481 Z" id="Mask" fill="#2B395C"></path>
                    </g>
                </g>
            </g>
        </g>
    </g>
</svg>