<?xml version="1.0" encoding="UTF-8" standalone="no"?>
<svg width="684px" height="392px" viewBox="0 0 684 392" version="1.1" xmlns="http://www.w3.org/2000/svg" xmlns:xlink="http://www.w3.org/1999/xlink">
    <!-- Generator: Sketch 3.6.1 (26313) - http://www.bohemiancoding.com/sketch -->
    <title>Group 20</title>
    <desc>Created with Sketch.</desc>
    <defs></defs>
    <g id="Prototype" stroke="none" stroke-width="1" fill="none" fill-rule="evenodd" opacity="0.6">
        <g id="landing-page-2" transform="translate(-379.000000, -1997.000000)">
            <g id="all-devices" transform="translate(0.000000, 1544.000000)">
                <g id="Group-21">
                    <g id="Group-20" transform="translate(381.000000, 455.000000)">
                        <g id="illus-type-instantsearch" transform="translate(168.604298, 0.000000)">
                            <g id="features/illus-type-instantsearch">
                                <g id="Page-1">
                                    <g id="integration-type">
                                        <g id="features/illus-type-instantsearch">
                                            <path d="M271.734185,11.634167 C269.117813,10.1206623 264.847192,10.0841528 262.204803,11.5474617 L2.29078608,155.483273 C-0.35577458,156.948892 -0.400888571,159.384388 2.21745934,160.939401 L240.047328,302.184431 C242.653391,303.732149 246.892504,303.775054 249.521366,302.277005 L509.05823,154.380771 C511.684533,152.884181 511.679828,150.436639 509.076212,148.930513 L271.734185,11.634167 L271.734185,11.634167 Z" id="Rectangle-19-Copy-3" stroke-opacity="0.33" stroke="#333E5F" stroke-width="3.99999976"></path>
                                            <path d="M166.675263,128.00995 C164.721881,126.870274 161.556059,126.877068 159.603247,128.025689 L72.0914927,179.499024 C70.1391085,180.647393 70.1350545,182.519322 72.0795882,183.678397 L241.410301,284.611081 C243.35611,285.770917 246.520878,285.792773 248.482249,284.658019 L338.668437,232.480769 C340.628355,231.346855 340.628098,229.500505 338.680272,228.364072 L166.675263,128.00995 L166.675263,128.00995 Z" id="Rectangle-19-Copy-68"></path>
                                            <path d="M255.9064,41.4089797 C246.040779,35.8051449 230.063581,35.8371977 220.229566,41.4752757 L101.389964,109.608892 C91.5518144,115.249341 91.6005847,124.286852 101.5115,129.801752 L101.198985,129.627854 C111.104257,135.139614 127.122325,135.059128 136.985989,129.44259 L255.917767,61.7208088 C265.777112,56.1067301 265.774192,47.0140465 255.9064,41.4089797 L255.9064,41.4089797 L255.9064,41.4089797 Z" id="Rectangle-19-Copy-69"></path>
                                            <path d="M316.96734,41.799837 C315.010135,40.6570953 311.817607,40.6423284 309.854042,41.7569703 L176.158738,117.650772 C174.187379,118.769839 174.17103,120.620546 176.119369,121.782739 L345.78143,222.986899 C347.731048,224.149854 350.92356,224.187444 352.895566,223.080146 L489.268723,146.505465 C491.248134,145.394009 491.274298,143.571386 489.308931,142.423878 L316.96734,41.799837 L316.96734,41.799837 Z" id="Rectangle-19-Copy-67"></path>
                                            <path d="M255.9064,4.44890495 C246.040779,-1.15492984 230.063581,-1.12287706 220.229566,4.51520094 L101.389964,72.648817 C91.5518144,78.289266 91.6005847,87.3267775 101.5115,92.8416775 L101.198985,92.6677795 C111.104257,98.1795394 127.122325,98.099053 136.985989,92.4825148 L255.917767,24.760734 C265.777112,19.1466554 265.774192,10.0539719 255.9064,4.44890495 L255.9064,4.44890495 L255.9064,4.44890495 Z" id="Rectangle-19-Copy-19" stroke="#333E5F" stroke-width="3.99999976"></path>
                                            <path d="M147.384674,53.6343679 C146.08446,52.8640914 143.991705,52.9119556 142.732939,53.7266705 L141.204679,54.7158114 C139.935811,55.5370653 139.965839,56.8172168 141.273013,57.5758441 L161.931288,69.565016 C163.237897,70.3233145 165.356296,70.3298331 166.675459,69.5723461 L168.162624,68.7183887 C169.476149,67.9641385 169.477295,66.7225505 168.186728,65.9579887 L147.384674,53.6343679 L147.384674,53.6343679 Z" id="Rectangle-19-Copy-15" fill="#333E5F"></path>
                                            <path d="M166.675263,93.4781194 C164.721881,92.3384431 161.556059,92.3452369 159.603247,93.4938576 L72.0914927,144.967194 C70.1391085,146.115561 70.1350545,147.98749 72.0795882,149.146566 L241.410301,250.079251 C243.35611,251.239087 246.520878,251.260941 248.482249,250.126189 L338.668437,197.948937 C340.628355,196.815025 340.628098,194.968675 338.680272,193.832241 L166.675263,93.4781194 L166.675263,93.4781194 Z" id="Rectangle-19-Copy-20" stroke-opacity="0.333305027" stroke="#333E5F" stroke-width="3.99999976" fill-opacity="0.333305027" fill="#333E5F"></path>
                                            <path d="M316.96734,7.26800593 C315.010135,6.12526427 311.817607,6.11049729 309.854042,7.2251393 L176.158738,83.1189413 C174.187379,84.2380084 174.17103,86.0887152 176.119369,87.250908 L345.78143,188.455068 C347.731048,189.618024 350.92356,189.655613 352.895566,188.548314 L489.268723,111.973634 C491.248134,110.862177 491.274298,109.039554 489.308931,107.892047 L316.96734,7.26800593 L316.96734,7.26800593 Z" id="Rectangle-19-Copy-36" stroke-opacity="0.333305027" stroke="#333E5F" stroke-width="3.99999976" fill-opacity="0.333305027" fill="#333E5F"></path>
                                            <path d="M142.529768,64.4291635 C139.855737,63.0015133 135.583535,63.0909724 132.974184,64.6368871 L113.463661,76.1959348 C110.86029,77.7383076 110.931311,80.1049692 113.622449,81.482102 L122.894049,86.2266475 C125.585117,87.6037443 129.907085,87.4971152 132.524494,86.0015931 L152.117451,74.8066654 C154.745133,73.3052747 154.71156,70.9329547 152.033526,69.5031674 L142.529768,64.4291635 L142.529768,64.4291635 Z" id="Rectangle-19-Copy-26" stroke="#333E5F" stroke-width="1.99999988" fill-opacity="0.333305027" fill="#333E5F"></path>
                                            <path d="M291.019046,180.022498 C288.450029,178.419852 284.254446,178.376199 281.661986,179.916654 L218.505345,217.444731 C215.9066,218.988922 215.92569,221.461196 218.54526,222.965146 L219.945747,223.769194 C222.566537,225.273844 226.810766,225.257983 229.411412,223.741979 L292.76752,186.809585 C295.374473,185.289906 295.396166,182.753106 292.83621,181.156113 L291.019046,180.022498 L291.019046,180.022498 Z" id="Rectangle-19-Copy-55" stroke="#333E5F" stroke-width="2" fill-opacity="0.333305027" fill="#333E5F"></path>
                                            <path d="M274.911371,170.288492 C272.342354,168.685845 268.146769,168.642191 265.554309,170.182648 L202.39767,207.710725 C199.798924,209.254915 199.818014,211.72719 202.437584,213.231139 L203.838073,214.035188 C206.458861,215.539838 210.70309,215.523976 213.303737,214.007973 L276.659846,177.075578 C279.266799,175.555898 279.288489,173.019099 276.728536,171.422105 L274.911371,170.288492 L274.911371,170.288492 Z" id="Rectangle-19-Copy-57" stroke="#333E5F" stroke-width="2" fill-opacity="0.333305027" fill="#333E5F"></path>
                                            <path d="M258.362214,159.524882 C255.793198,157.922235 251.597613,157.878583 249.005153,159.419037 L185.848514,196.947115 C183.249768,198.491305 183.268857,200.96358 185.888427,202.467529 L187.288916,203.271577 C189.909705,204.776228 194.153933,204.760366 196.754579,203.244363 L260.110689,166.311968 C262.717642,164.792289 262.739333,162.255489 260.179379,160.658496 L258.362214,159.524882 L258.362214,159.524882 Z" id="Rectangle-19-Copy-60" stroke="#333E5F" stroke-width="2" fill-opacity="0.333305027" fill="#333E5F"></path>
                                            <path d="M307.109871,190.173277 C304.540854,188.570631 300.34527,188.526977 297.752811,190.067433 L234.59617,227.595511 C231.997424,229.139701 232.016515,231.611976 234.636084,233.115925 L236.036573,233.919973 C238.657361,235.424624 242.90159,235.408762 245.502238,233.892758 L308.858346,196.960364 C311.465299,195.440685 311.48699,192.903885 308.927036,191.306892 L307.109871,190.173277 L307.109871,190.173277 Z" id="Rectangle-19-Copy-56" stroke="#333E5F" stroke-width="2" fill-opacity="0.333305027" fill="#333E5F"></path>
                                            <path d="M165.739975,109.562572 C164.39797,108.864218 162.235383,108.898962 160.924454,109.631926 L151.99998,114.621765 C150.682445,115.358422 150.727011,116.491188 152.071724,117.138487 L161.643013,121.745783 C163.000171,122.399073 165.193026,122.381504 166.5578,121.698076 L175.567809,117.186195 C176.925012,116.506557 176.9432,115.392527 175.595331,114.69112 L165.739975,109.562572 L165.739975,109.562572 Z" id="Rectangle-19-Copy-47" stroke="#333E5F" stroke-width="2" fill-opacity="0.333305027" fill="#333E5F"></path>
                                            <path d="M148.026342,120.059272 C146.684338,119.360918 144.521752,119.395662 143.210822,120.128627 L134.286348,125.118465 C132.968814,125.855123 133.013379,126.987888 134.358092,127.635188 L143.929382,132.242483 C145.28654,132.895773 147.479395,132.878205 148.844168,132.194776 L157.854176,127.682896 C159.211381,127.003258 159.229569,125.889227 157.881698,125.18782 L148.026342,120.059272 L148.026342,120.059272 Z" id="Rectangle-19-Copy-48" stroke="#333E5F" stroke-width="2" fill-opacity="0.333305027" fill="#333E5F"></path>
                                            <path d="M130.705553,129.951555 C129.363549,129.2532 127.200962,129.287944 125.890033,130.020909 L116.965558,135.010747 C115.648024,135.747405 115.69259,136.880171 117.037303,137.52747 L126.608592,142.134765 C127.96575,142.788055 130.158605,142.770487 131.523378,142.087059 L140.533387,137.575177 C141.890592,136.895541 141.90878,135.78151 140.560909,135.080102 L130.705553,129.951555 L130.705553,129.951555 Z" id="Rectangle-19-Copy-49" stroke="#333E5F" stroke-width="2" fill-opacity="0.333305027" fill="#333E5F"></path>
                                            <path d="M195.090759,154.033395 C198.499953,151.794708 198.255574,148.834949 195.468709,147.077372 C192.681843,145.319794 188.047098,145.843276 185.043686,147.36114 C182.040276,148.879004 181.759258,152.226326 184.105121,154.033395 C186.450984,155.840464 191.681566,156.272083 195.090759,154.033395 L195.090759,154.033395 Z" id="Rectangle-19-Copy-71" stroke="#333E5F" stroke-width="1.99999988" fill="#333E5F"></path>
                                            <path d="M191.262871,177.680129 C194.672065,175.441441 194.427687,172.481682 191.640821,170.724106 C188.853955,168.966528 184.21921,169.49001 181.215798,171.007874 C178.212389,172.525737 177.93137,175.873059 180.277233,177.680129 C182.623096,179.487197 187.853678,179.918816 191.262871,177.680129 L191.262871,177.680129 Z" id="Rectangle-19-Copy-70" stroke="#333E5F" stroke-width="1.99999988" fill="#333E5F"></path>
                                            <path d="M112.90597,140.902688 C111.563966,140.204334 109.401379,140.239078 108.09045,140.972042 L99.1659757,145.961881 C97.8484414,146.698538 97.893007,147.831304 99.2377199,148.478603 L108.80901,153.085899 C110.166167,153.739188 112.359023,153.72162 113.723796,153.038193 L122.733805,148.526311 C124.091008,147.846674 124.109197,146.732642 122.761326,146.031236 L112.90597,140.902688 L112.90597,140.902688 Z" id="Path" stroke="#333E5F" stroke-width="2" fill-opacity="0.333305027" fill="#333E5F"></path>
                                            <path d="M185.713333,119.905304 C184.371329,119.206949 182.208741,119.241693 180.897813,119.974658 L171.973338,124.964496 C170.655804,125.701154 170.700369,126.833919 172.045082,127.481219 L181.616373,132.088515 C182.973529,132.741804 185.166386,132.724236 186.531158,132.040808 L195.541167,127.528927 C196.898371,126.849289 196.91656,125.735259 195.568689,125.033851 L185.713333,119.905304 L185.713333,119.905304 Z" id="Rectangle-19-Copy-54" stroke="#333E5F" stroke-width="2" fill-opacity="0.333305027" fill="#333E5F"></path>
                                            <path d="M167.999701,130.402004 C166.657696,129.703649 164.49511,129.738393 163.18418,130.471358 L154.259707,135.461196 C152.942172,136.197854 152.986738,137.330619 154.331451,137.977919 L163.90274,142.585216 C165.259898,143.238505 167.452753,143.220936 168.817527,142.537508 L177.827536,138.025628 C179.184739,137.345989 179.202927,136.231959 177.855056,135.530552 L167.999701,130.402004 L167.999701,130.402004 Z" id="Rectangle-19-Copy-53" stroke="#333E5F" stroke-width="2" fill-opacity="0.333305027" fill="#333E5F"></path>
                                            <path d="M150.678911,140.294286 C149.336907,139.595931 147.174321,139.630676 145.863391,140.36364 L136.938916,145.353479 C135.621382,146.090137 135.665948,147.222901 137.010661,147.870201 L146.581951,152.477497 C147.939109,153.130787 150.131964,153.113219 151.496738,152.42979 L160.506745,147.91791 C161.86395,147.238271 161.882138,146.124241 160.534268,145.422833 L150.678911,140.294286 L150.678911,140.294286 Z" id="Rectangle-19-Copy-52" stroke="#333E5F" stroke-width="2" fill-opacity="0.333305027" fill="#333E5F"></path>
                                            <path d="M132.879329,151.24542 C131.537325,150.547064 129.374738,150.58181 128.063809,151.314773 L119.139334,156.304612 C117.8218,157.04127 117.866365,158.174035 119.211078,158.821334 L128.782368,163.428631 C130.139526,164.08192 132.332381,164.064352 133.697154,163.380923 L142.707163,158.869043 C144.064367,158.189405 144.082556,157.075374 142.734685,156.373967 L132.879329,151.24542 L132.879329,151.24542 Z" id="Rectangle-19-Copy-51" stroke="#333E5F" stroke-width="2" fill-opacity="0.333305027" fill="#333E5F"></path>
                                            <path d="M217.168824,135.28575 C215.904333,134.466794 213.82545,134.42908 212.526573,135.200881 L144.664418,175.525005 C143.365065,176.297088 143.384497,177.514423 144.703594,178.241666 L145.483717,178.671764 C146.804706,179.400049 148.932719,179.374202 150.235697,178.614651 L218.312181,138.930592 C219.615639,138.170763 219.636621,136.884036 218.382737,136.07195 L217.168824,135.28575 L217.168824,135.28575 Z" id="Rectangle-19-Copy-46" fill-opacity="0.333305027" fill="#333E5F"></path>
                                            <path d="M234.733423,146.04936 C233.468932,145.230404 231.390049,145.19269 230.091173,145.964492 L162.229019,186.288615 C160.929665,187.060698 160.949096,188.278032 162.268193,189.005276 L163.048318,189.435374 C164.369307,190.16366 166.497318,190.137811 167.800298,189.378261 L235.876782,149.694203 C237.180238,148.934373 237.20122,147.647645 235.947337,146.83556 L234.733423,146.04936 L234.733423,146.04936 Z" id="Rectangle-19-Copy-59" fill-opacity="0.333305027" fill="#333E5F"></path>
                                            <path d="M322.314096,25.5092507 C319.71444,23.9693201 315.484862,23.9401974 312.860548,25.4479487 L246.705226,63.4562806 C244.083833,64.962355 244.10917,67.3627564 246.759358,68.8163761 L249.667329,70.4113892 C252.318619,71.8656138 256.596486,71.8444586 259.243132,70.3523435 L325.570119,32.9587831 C328.207399,31.4719484 328.24186,29.0206167 325.638242,27.4783399 L322.314096,25.5092507 L322.314096,25.5092507 Z" id="Rectangle-19-Copy-38" stroke="#333E5F" stroke-width="2" fill-opacity="0.333305027" fill="#333E5F"></path>
                                            <path d="M319.252608,47.2605026 C316.652952,45.720572 312.418581,45.7061832 309.798446,47.2262932 L264.174197,73.6958756 C261.552464,75.2169128 261.577528,77.6294438 264.227716,79.0830635 L267.135687,80.6780767 C269.786978,82.1323012 274.072049,82.1036233 276.703079,80.6160496 L322.51704,54.7130164 C325.149675,53.2245352 325.180372,50.7718686 322.576754,49.2295918 L319.252608,47.2605026 L319.252608,47.2605026 Z" id="Rectangle-19-Copy-39" stroke="#333E5F" stroke-width="2" fill-opacity="0.333305027" fill="#333E5F"></path>
                                            <path d="M250.130117,77.6944152 C241.250685,72.6496818 226.867081,72.6618048 218.00144,77.7226322 L216.319453,78.682771 C207.454707,83.7430883 207.495212,91.8674729 216.418333,96.8337716 L217.902559,97.6598406 C226.821916,102.624044 241.29281,102.637665 250.229453,97.6873587 L251.820089,96.8062532 C260.754382,91.8572474 260.798288,83.7553974 251.919425,78.7109876 L250.130117,77.6944152 L250.130117,77.6944152 Z" id="Rectangle-19-Copy-29" stroke="#333E5F" stroke-width="2" fill-opacity="0.333305027" fill="#333E5F"></path>
                                            <path d="M370.920649,52.697152 C368.320993,51.1572215 364.091415,51.1280987 361.4671,52.6358502 L295.311779,90.644182 C292.690385,92.1502563 292.715722,94.5506578 295.36591,96.0042774 L298.273882,97.5992906 C300.925172,99.0535152 305.203039,99.0323601 307.849685,97.5402448 L374.176672,60.1466844 C376.813951,58.6598498 376.848413,56.2085181 374.244795,54.6662412 L370.920649,52.697152 L370.920649,52.697152 Z" id="Rectangle-19-Copy-42" stroke="#333E5F" stroke-width="2" fill-opacity="0.333305027" fill="#333E5F"></path>
                                            <path d="M367.859161,74.448404 C365.259504,72.9084735 361.025134,72.8940846 358.404999,74.4141945 L312.78075,100.883777 C310.159016,102.404814 310.184081,104.817345 312.834269,106.270965 L315.74224,107.865978 C318.39353,109.320203 322.678602,109.291525 325.309632,107.803951 L371.123593,81.9009177 C373.756228,80.4124365 373.786924,77.9597699 371.183307,76.4174932 L367.859161,74.448404 L367.859161,74.448404 Z" id="Rectangle-19-Copy-41" stroke="#333E5F" stroke-width="2" fill-opacity="0.333305027" fill="#333E5F"></path>
                                            <path d="M298.736669,104.882317 C289.857238,99.8375831 275.473634,99.8497061 266.607993,104.910533 L264.926006,105.870672 C256.061259,110.93099 256.101764,119.055374 265.024886,124.021673 L266.509112,124.847742 C275.428469,129.811946 289.899363,129.825567 298.836006,124.87526 L300.426641,123.994154 C309.360935,119.045149 309.404841,110.943299 300.525978,105.898889 L298.736669,104.882317 L298.736669,104.882317 Z" id="Rectangle-19-Copy-40" stroke="#333E5F" stroke-width="2" fill-opacity="0.333305027" fill="#333E5F"></path>
                                            <path d="M421.581,81.5553912 C418.981343,80.0154607 414.751765,79.9863379 412.127451,81.4940893 L345.97213,119.502421 C343.350736,121.008496 343.376073,123.408897 346.026261,124.862517 L348.934232,126.45753 C351.585522,127.911754 355.863389,127.890599 358.510035,126.398484 L424.837023,89.0049236 C427.474302,87.5180889 427.508763,85.0667571 424.905146,83.5244804 L421.581,81.5553912 L421.581,81.5553912 Z" id="Rectangle-19-Copy-45" stroke="#333E5F" stroke-width="2" fill-opacity="0.333305027" fill="#333E5F"></path>
                                            <path d="M418.519511,103.306643 C415.919855,101.766713 411.685485,101.752324 409.065349,103.272434 L363.4411,129.742016 C360.819367,131.263053 360.844431,133.675584 363.494619,135.129204 L366.402591,136.724217 C369.053881,138.178441 373.338952,138.149764 375.969983,136.66219 L421.783944,110.759157 C424.416579,109.270676 424.447275,106.818009 421.843657,105.275732 L418.519511,103.306643 L418.519511,103.306643 Z" id="Rectangle-19-Copy-44" stroke="#333E5F" stroke-width="2" fill-opacity="0.333305027" fill="#333E5F"></path>
                                            <path d="M349.39702,133.740556 C340.517589,128.695822 326.133984,128.707945 317.268343,133.768773 L315.586357,134.728911 C306.72161,139.789228 306.762115,147.913614 315.685236,152.879912 L317.169463,153.70598 C326.08882,158.670185 340.559713,158.683806 349.496357,153.733499 L351.086992,152.852393 C360.021286,147.903388 360.065192,139.801537 351.186329,134.757128 L349.39702,133.740556 L349.39702,133.740556 Z" id="Rectangle-19-Copy-43" stroke="#333E5F" stroke-width="2" fill-opacity="0.333305027" fill="#333E5F"></path>
                                            <path d="M240.062429,20.4132104 C245.021256,17.2150851 244.665795,12.9868594 240.612173,10.4760348 C236.558551,7.96521019 229.817102,8.71304141 225.448505,10.8814182 C221.079908,13.0497949 220.671154,17.831683 224.083318,20.4132102 C227.495483,22.9947375 235.103602,23.6113355 240.062429,20.4132104 L240.062429,20.4132104 Z" id="Oval-70-Copy-4" stroke="#333E5F" stroke-width="3.99999976"></path>
                                            <path d="M242.348164,15.1946974 L256.04015,14.9209191" id="Path-484" stroke="#333E5F" stroke-width="3.99999976"></path>
                                        </g>
                                    </g>
                                </g>
                            </g>
                        </g>
                        <g id="features/illus-type-mobilesearch" transform="translate(0.000000, 157.652839)">
                            <g id="Group-7-Copy-4" transform="translate(0.000000, 34.853400)">
                                <path d="M5.62952392,61.109183 C-1.15880574,64.8118484 -1.27889362,71.033014 5.34867235,74.9969925 L224.7794,206.239548 C231.41262,210.206908 242.239019,210.327142 248.962011,206.507433 L343.988342,152.517634 C350.710809,148.698222 350.756469,142.421213 344.094582,138.500046 L125.124016,9.61462777 C118.460223,5.69233959 107.563491,5.50973652 100.766794,9.21696555 L5.62952392,61.109183 Z" id="Rectangle-17" stroke-opacity="0.333305027" stroke="#333E5F" stroke-width="4"></path>
                                <path d="M35.5064124,73.0042049 C31.5887482,75.0530957 31.486103,78.5692853 35.2558366,80.8449692 L195.448003,177.548546 C199.227278,179.82999 205.373097,179.855063 209.180569,177.601296 L295.636777,126.425037 C299.441789,124.172726 299.435737,120.521605 295.636592,118.277905 L139.699686,26.1846156 C135.894572,23.9373895 129.628518,23.7794861 125.716359,25.8254979 L35.5064124,73.0042049 Z" id="Rectangle-19" fill-opacity="0.125849185" fill="#333E5F"></path>
                                <path d="M282.765069,168.639987 C288.813092,164.256706 286.602515,159.213719 282.765068,155.575919 C278.927622,151.938119 270.269377,152.603989 264.941227,155.575919 C259.613077,158.547849 259.114541,165.101801 263.27618,168.639987 C267.437819,172.178172 276.717046,173.023268 282.765069,168.639987 Z" id="Oval-70" stroke-opacity="0.333305027" stroke="#333E5F" stroke-width="4"></path>
                                <path d="M58.9481468,43.0628826 C55.9988161,44.5676615 55.2977149,47.8662877 57.3965439,50.4482239 L54.8519402,47.3179048 C56.9443443,49.8919373 61.0403226,50.7542259 63.9808086,49.2539597 L83.5603996,39.2642506 C86.5097304,37.7594717 87.2108315,34.4608455 85.1120026,31.8789092 L87.6566062,35.0092284 C85.5642022,32.4351959 81.4682239,31.5729073 78.5277378,33.0731735 L58.9481468,43.0628826 Z" id="Rectangle-21" fill-opacity="0.333305027" fill="#333E5F"></path>
                            </g>
                            <path d="M43.4680981,62.4446219 C39.5891239,64.5657625 39.5178431,68.140522 43.2875767,70.4162059 L203.479743,167.119783 C207.259018,169.401226 213.439228,169.466216 217.259888,167.278535 L301.207734,119.210635 C305.039023,117.016868 305.069821,113.407727 301.272149,111.146788 L142.078761,16.3712334 C138.283047,14.1114606 132.059587,14.0001135 128.182509,16.1202174 L43.4680981,62.4446219 Z" id="Rectangle-19-Copy" stroke-opacity="0.333305027" stroke="#333E5F" stroke-width="3.99999976" fill-opacity="0.333305027" fill="#333E5F"></path>
                            <path d="M186.442292,22.8097704 C184.499131,21.7602521 181.354977,21.7584702 179.408118,22.8120183 L110.519716,60.0911731 C106.63605,62.1928297 106.626322,65.6253592 110.487148,67.7519716 L126.74897,76.7092775 C130.614649,78.8385631 136.892275,78.8297773 140.75518,76.6980755 L205.697179,40.8605404 C209.566916,38.7250681 209.545163,35.2878326 205.66536,33.1923174 L186.442292,22.8097704 Z" id="Rectangle-19-Copy-24" stroke="#333E5F" stroke-width="2" fill-opacity="0.333305027" fill="#333E5F"></path>
                            <path d="M220.672259,41.9742536 C218.729098,40.9247353 215.584943,40.9229534 213.638085,41.9765015 L144.749682,79.2556563 C140.866017,81.3573129 140.856289,84.7898424 144.717114,86.9164548 L160.978937,95.8737607 C164.844616,98.0030463 171.122242,97.9942605 174.985146,95.8625587 L239.927146,60.0250236 C243.796883,57.8895513 243.775129,54.4523158 239.895327,52.3568006 L220.672259,41.9742536 Z" id="Rectangle-19-Copy-25" stroke="#333E5F" stroke-width="2" fill-opacity="0.333305027" fill="#333E5F"></path>
                            <path d="M256.271424,61.1387368 C254.328263,60.0892185 251.184109,60.0874366 249.23725,61.1409847 L180.348847,98.4201395 C176.465182,100.521796 176.455454,103.954326 180.31628,106.080938 L196.578102,115.038244 C200.443781,117.16753 206.721407,117.158744 210.584312,115.027042 L275.526311,79.1895068 C279.396048,77.0540344 279.374295,73.616799 275.494492,71.5212838 L256.271424,61.1387368 Z" id="Rectangle-19-Copy-27" stroke="#333E5F" stroke-width="2" fill-opacity="0.333305027" fill="#333E5F"></path>
                            <g id="Group" transform="translate(66.636269, 0.000000)" stroke="#333E5F" stroke-width="4">
                                <path d="M4.92541529,45.7473859 C6.38191076,46.617305 4.92541529,45.7473859 4.92541529,45.7473859 C-2.1472332,41.5231147 0.110072797,34.0546068 9.96288215,29.0682166 L63.1713502,2.14004117 C70.0658291,-1.34917294 80.3513077,-0.0128230798 84.9352414,4.30025835 C84.9352414,4.30025835 86.1291798,5.03682307 84.9352414,4.30025835 C83.6718477,3.52084525 84.9352414,4.30025835 84.9352414,4.30025835 C92.2390862,8.80614775 90.2099729,16.5875814 80.4137719,21.6750294 L36.222577,44.6247838 C26.4215935,49.7147155 10.7927518,49.2517621 4.92541529,45.7473859 C4.92541529,45.7473859 3.71716928,45.0257385 4.92541529,45.7473859 Z" id="Rectangle-195-Copy-2"></path>
                                <g id="Oval-70-Copy-4-+-Path-484-Copy" transform="translate(57.469072, 7.983051)">
                                    <path d="M13.6891838,9.21233168 C17.4083038,6.65383152 17.1417091,3.27125087 14.1014921,1.26259121 C11.0612751,-0.746068456 6.00518865,-0.147803482 2.72874087,1.58689792 C-0.54770692,3.32159933 -0.854272578,7.14710983 1.70485082,9.21233161 C4.26397421,11.2775534 9.9700637,11.7708318 13.6891838,9.21233168 Z" id="Oval-70-Copy-4"></path>
                                    <path d="M15.0611853,4.92800996 L26.0147746,4.65423163" id="Path-484"></path>
                                </g>
                            </g>
                        </g>
                    </g>
                </g>
            </g>
        </g>
    </g>
</svg>